# MagicaVoxel @ Ephtracy

# group
o 

# material
mtllib Drawer.mtl
usemtl palette

# normals
vn -1 0 0
vn 1 0 0
vn 0 0 1
vn 0 0 -1
vn 0 -1 0
vn 0 1 0

# texcoords
vt 0.537109 0.5
vt 0.865234 0.5
vt 0.869141 0.5
vt 0.873047 0.5
vt 0.986328 0.5

# verts
v -1.7 0 1.3
v -1.7 0 1
v -1.7 0 -1
v -1.7 0 -1.3
v -1.7 0.1 1.3
v -1.7 0.1 1.2
v -1.7 0.1 -1.2
v -1.7 0.1 -1.3
v -1.7 0.2 1
v -1.7 0.2 -1
v -1.7 2.7 1.2
v -1.7 2.7 -1.2
v -1.7 2.8 1.2
v -1.7 2.8 0.5
v -1.7 2.8 -1.2
v -1.7 2.9 0.5
v -1.7 2.9 0.3
v -1.7 3 0.3
v -1.7 3 0.0999999
v -1.7 3.1 0.0999999
v -1.7 3.1 -0.1
v -1.7 3.2 -0.1
v -1.7 3.2 -0.9
v -1.7 3.3 -0.9
v -1.7 3.3 -1.2
v -1.1 0.8 1.2
v -1.1 0.8 1.1
v -1.1 0.9 1.2
v -1.1 0.9 1.1
v -1.1 2.1 1.2
v -1.1 2.1 1.1
v -1.1 2.2 1.2
v -1.1 2.2 1.1
v -0.0999999 0.4 1.2
v -0.0999999 0.4 1.1
v -0.0999999 1.5 1.2
v -0.0999999 1.5 1.1
v -0.0999999 1.6 1.2
v -0.0999999 1.6 1.1
v -0.0999999 2.6 1.2
v -0.0999999 2.6 1.1
v 0.7 0.6 1.2
v 0.7 0.6 1.1
v 0.7 0.7 1.2
v 0.7 0.7 1.1
v 0.7 1.2 1.2
v 0.7 1.2 1.1
v 0.7 1.3 1.2
v 0.7 1.3 1.1
v 0.8 2.1 1.2
v 0.8 2.1 1.1
v 0.8 2.2 1.2
v 0.8 2.2 1.1
v 1.4 2.8 0.5
v 1.4 2.8 -0.9
v 1.4 2.9 0.5
v 1.4 2.9 0.3
v 1.4 3 0.3
v 1.4 3 0.0999999
v 1.4 3.1 0.0999999
v 1.4 3.1 -0.1
v 1.4 3.2 -0.1
v 1.4 3.2 -0.9
v 1.4 3.2 -1.2
v 1.4 3.3 -0.9
v 1.4 3.3 -1.2
v 1.5 0 1.3
v 1.5 0 1
v 1.5 0 -1
v 1.5 0 -1.3
v 1.5 0.1 1.3
v 1.5 0.1 1.2
v 1.5 0.1 -1.2
v 1.5 0.1 -1.3
v 1.5 0.2 1.2
v 1.5 0.2 1
v 1.5 0.2 -1
v 1.5 0.2 -1.2
v 1.6 0.4 1.2
v 1.6 0.4 1.1
v 1.6 0.9 1.2
v 1.6 0.9 1.1
v 1.6 1 1.2
v 1.6 1 1.1
v 1.6 1.5 1.2
v 1.6 1.5 1.1
v 1.6 1.6 1.2
v 1.6 1.6 1.1
v 1.6 2.6 1.2
v 1.6 2.6 1.1
v -1.6 0.4 1.2
v -1.6 0.4 1.1
v -1.6 1.5 1.2
v -1.6 1.5 1.1
v -1.6 1.6 1.2
v -1.6 1.6 1.1
v -1.6 2.6 1.2
v -1.6 2.6 1.1
v -1.5 0 1.3
v -1.5 0 1
v -1.5 0 -1
v -1.5 0 -1.3
v -1.5 0.1 1.3
v -1.5 0.1 1.2
v -1.5 0.1 -1.2
v -1.5 0.1 -1.3
v -1.5 0.2 1.2
v -1.5 0.2 1
v -1.5 0.2 -1
v -1.5 0.2 -1.2
v -1.4 2.8 0.5
v -1.4 2.8 -0.9
v -1.4 2.9 0.5
v -1.4 2.9 0.3
v -1.4 3 0.3
v -1.4 3 0.0999999
v -1.4 3.1 0.0999999
v -1.4 3.1 -0.1
v -1.4 3.2 -0.1
v -1.4 3.2 -0.9
v -1.4 3.2 -1.2
v -1.4 3.3 -0.9
v -1.4 3.3 -1.2
v -0.9 0.8 1.2
v -0.9 0.8 1.1
v -0.9 0.9 1.2
v -0.9 0.9 1.1
v -0.9 2.1 1.2
v -0.9 2.1 1.1
v -0.9 2.2 1.2
v -0.9 2.2 1.1
v 0.1 0.4 1.2
v 0.1 0.4 1.1
v 0.1 0.9 1.2
v 0.1 0.9 1.1
v 0.1 1 1.2
v 0.1 1 1.1
v 0.1 1.5 1.2
v 0.1 1.5 1.1
v 0.1 1.6 1.2
v 0.1 1.6 1.1
v 0.1 2.6 1.2
v 0.1 2.6 1.1
v 0.9 0.6 1.2
v 0.9 0.6 1.1
v 0.9 0.7 1.2
v 0.9 0.7 1.1
v 0.9 1.2 1.2
v 0.9 1.2 1.1
v 0.9 1.3 1.2
v 0.9 1.3 1.1
v 1 2.1 1.2
v 1 2.1 1.1
v 1 2.2 1.2
v 1 2.2 1.1
v 1.7 0 1.3
v 1.7 0 1
v 1.7 0 -1
v 1.7 0 -1.3
v 1.7 0.1 1.3
v 1.7 0.1 1.2
v 1.7 0.1 -1.2
v 1.7 0.1 -1.3
v 1.7 0.2 1
v 1.7 0.2 -1
v 1.7 2.7 1.2
v 1.7 2.7 -1.2
v 1.7 2.8 1.2
v 1.7 2.8 0.5
v 1.7 2.8 -1.2
v 1.7 2.9 0.5
v 1.7 2.9 0.3
v 1.7 3 0.3
v 1.7 3 0.0999999
v 1.7 3.1 0.0999999
v 1.7 3.1 -0.1
v 1.7 3.2 -0.1
v 1.7 3.2 -0.9
v 1.7 3.3 -0.9
v 1.7 3.3 -1.2
v -1.7 0 1.3
v -1.7 0.1 1.3
v -1.5 0 1.3
v -1.5 0.1 1.3
v 1.5 0 1.3
v 1.5 0.1 1.3
v 1.7 0 1.3
v 1.7 0.1 1.3
v -1.7 0.1 1.2
v -1.7 2.7 1.2
v -1.7 2.8 1.2
v -1.6 0.4 1.2
v -1.6 1.5 1.2
v -1.6 1.6 1.2
v -1.6 2.6 1.2
v -1.5 0.1 1.2
v -1.5 0.2 1.2
v -1.1 0.8 1.2
v -1.1 0.9 1.2
v -1.1 2.1 1.2
v -1.1 2.2 1.2
v -0.9 0.8 1.2
v -0.9 0.9 1.2
v -0.9 2.1 1.2
v -0.9 2.2 1.2
v -0.0999999 0.4 1.2
v -0.0999999 1.5 1.2
v -0.0999999 1.6 1.2
v -0.0999999 2.6 1.2
v 0.1 0.4 1.2
v 0.1 0.9 1.2
v 0.1 1 1.2
v 0.1 1.5 1.2
v 0.1 1.6 1.2
v 0.1 2.6 1.2
v 0.7 0.6 1.2
v 0.7 0.7 1.2
v 0.7 1.2 1.2
v 0.7 1.3 1.2
v 0.8 2.1 1.2
v 0.8 2.2 1.2
v 0.9 0.6 1.2
v 0.9 0.7 1.2
v 0.9 1.2 1.2
v 0.9 1.3 1.2
v 1 2.1 1.2
v 1 2.2 1.2
v 1.5 0.1 1.2
v 1.5 0.2 1.2
v 1.6 0.4 1.2
v 1.6 0.9 1.2
v 1.6 1 1.2
v 1.6 1.5 1.2
v 1.6 1.6 1.2
v 1.6 2.6 1.2
v 1.7 0.1 1.2
v 1.7 2.7 1.2
v 1.7 2.8 1.2
v -1.6 0.4 1.1
v -1.6 1.5 1.1
v -1.6 1.6 1.1
v -1.6 2.6 1.1
v -1.1 0.8 1.1
v -1.1 0.9 1.1
v -1.1 2.1 1.1
v -1.1 2.2 1.1
v -0.9 0.8 1.1
v -0.9 0.9 1.1
v -0.9 2.1 1.1
v -0.9 2.2 1.1
v -0.0999999 0.4 1.1
v -0.0999999 1.5 1.1
v -0.0999999 1.6 1.1
v -0.0999999 2.6 1.1
v 0.1 0.4 1.1
v 0.1 0.9 1.1
v 0.1 1 1.1
v 0.1 1.5 1.1
v 0.1 1.6 1.1
v 0.1 2.6 1.1
v 0.7 0.6 1.1
v 0.7 0.7 1.1
v 0.7 1.2 1.1
v 0.7 1.3 1.1
v 0.8 2.1 1.1
v 0.8 2.2 1.1
v 0.9 0.6 1.1
v 0.9 0.7 1.1
v 0.9 1.2 1.1
v 0.9 1.3 1.1
v 1 2.1 1.1
v 1 2.2 1.1
v 1.6 0.4 1.1
v 1.6 0.9 1.1
v 1.6 1 1.1
v 1.6 1.5 1.1
v 1.6 1.6 1.1
v 1.6 2.6 1.1
v -1.7 2.8 0.5
v -1.7 2.9 0.5
v -1.4 2.8 0.5
v -1.4 2.9 0.5
v 1.4 2.8 0.5
v 1.4 2.9 0.5
v 1.7 2.8 0.5
v 1.7 2.9 0.5
v -1.7 2.9 0.3
v -1.7 3 0.3
v -1.4 2.9 0.3
v -1.4 3 0.3
v 1.4 2.9 0.3
v 1.4 3 0.3
v 1.7 2.9 0.3
v 1.7 3 0.3
v -1.7 3 0.0999999
v -1.7 3.1 0.0999999
v -1.4 3 0.0999999
v -1.4 3.1 0.0999999
v 1.4 3 0.0999999
v 1.4 3.1 0.0999999
v 1.7 3 0.0999999
v 1.7 3.1 0.0999999
v -1.7 3.1 -0.1
v -1.7 3.2 -0.1
v -1.4 3.1 -0.1
v -1.4 3.2 -0.1
v 1.4 3.1 -0.1
v 1.4 3.2 -0.1
v 1.7 3.1 -0.1
v 1.7 3.2 -0.1
v -1.7 3.2 -0.9
v -1.7 3.3 -0.9
v -1.4 2.8 -0.9
v -1.4 3.2 -0.9
v -1.4 3.3 -0.9
v 1.4 2.8 -0.9
v 1.4 3.2 -0.9
v 1.4 3.3 -0.9
v 1.7 3.2 -0.9
v 1.7 3.3 -0.9
v -1.7 0 -1
v -1.7 0.2 -1
v -1.5 0 -1
v -1.5 0.2 -1
v 1.5 0 -1
v 1.5 0.2 -1
v 1.7 0 -1
v 1.7 0.2 -1
v -1.7 0 1
v -1.7 0.2 1
v -1.5 0 1
v -1.5 0.2 1
v 1.5 0 1
v 1.5 0.2 1
v 1.7 0 1
v 1.7 0.2 1
v -1.7 0.1 -1.2
v -1.7 2.7 -1.2
v -1.7 2.8 -1.2
v -1.7 3.3 -1.2
v -1.5 0.1 -1.2
v -1.5 0.2 -1.2
v -1.4 3.2 -1.2
v -1.4 3.3 -1.2
v 1.4 3.2 -1.2
v 1.4 3.3 -1.2
v 1.5 0.1 -1.2
v 1.5 0.2 -1.2
v 1.7 0.1 -1.2
v 1.7 2.7 -1.2
v 1.7 2.8 -1.2
v 1.7 3.3 -1.2
v -1.7 0 -1.3
v -1.7 0.1 -1.3
v -1.5 0 -1.3
v -1.5 0.1 -1.3
v 1.5 0 -1.3
v 1.5 0.1 -1.3
v 1.7 0 -1.3
v 1.7 0.1 -1.3
v -1.7 0 1.3
v -1.5 0 1.3
v 1.5 0 1.3
v 1.7 0 1.3
v -1.7 0 1
v -1.5 0 1
v 1.5 0 1
v 1.7 0 1
v -1.7 0 -1
v -1.5 0 -1
v 1.5 0 -1
v 1.7 0 -1
v -1.7 0 -1.3
v -1.5 0 -1.3
v 1.5 0 -1.3
v 1.7 0 -1.3
v -1.5 0.2 1.2
v 1.5 0.2 1.2
v -1.7 0.2 1
v -1.5 0.2 1
v 1.5 0.2 1
v 1.7 0.2 1
v -1.7 0.2 -1
v -1.5 0.2 -1
v 1.5 0.2 -1
v 1.7 0.2 -1
v -1.5 0.2 -1.2
v 1.5 0.2 -1.2
v 0.7 0.6 1.2
v 0.9 0.6 1.2
v 0.7 0.6 1.1
v 0.9 0.6 1.1
v -1.1 0.8 1.2
v -0.9 0.8 1.2
v -1.1 0.8 1.1
v -0.9 0.8 1.1
v 0.1 0.9 1.2
v 1.6 0.9 1.2
v 0.1 0.9 1.1
v 1.6 0.9 1.1
v 0.7 1.2 1.2
v 0.9 1.2 1.2
v 0.7 1.2 1.1
v 0.9 1.2 1.1
v -1.6 1.5 1.2
v -0.0999999 1.5 1.2
v 0.1 1.5 1.2
v 1.6 1.5 1.2
v -1.6 1.5 1.1
v -0.0999999 1.5 1.1
v 0.1 1.5 1.1
v 1.6 1.5 1.1
v -1.1 2.1 1.2
v -0.9 2.1 1.2
v 0.8 2.1 1.2
v 1 2.1 1.2
v -1.1 2.1 1.1
v -0.9 2.1 1.1
v 0.8 2.1 1.1
v 1 2.1 1.1
v -1.6 2.6 1.2
v -0.0999999 2.6 1.2
v 0.1 2.6 1.2
v 1.6 2.6 1.2
v -1.6 2.6 1.1
v -0.0999999 2.6 1.1
v 0.1 2.6 1.1
v 1.6 2.6 1.1
v -1.7 0.1 1.3
v -1.5 0.1 1.3
v 1.5 0.1 1.3
v 1.7 0.1 1.3
v -1.7 0.1 1.2
v -1.5 0.1 1.2
v 1.5 0.1 1.2
v 1.7 0.1 1.2
v -1.7 0.1 -1.2
v -1.5 0.1 -1.2
v 1.5 0.1 -1.2
v 1.7 0.1 -1.2
v -1.7 0.1 -1.3
v -1.5 0.1 -1.3
v 1.5 0.1 -1.3
v 1.7 0.1 -1.3
v -1.6 0.4 1.2
v -0.0999999 0.4 1.2
v 0.1 0.4 1.2
v 1.6 0.4 1.2
v -1.6 0.4 1.1
v -0.0999999 0.4 1.1
v 0.1 0.4 1.1
v 1.6 0.4 1.1
v 0.7 0.7 1.2
v 0.9 0.7 1.2
v 0.7 0.7 1.1
v 0.9 0.7 1.1
v -1.1 0.9 1.2
v -0.9 0.9 1.2
v -1.1 0.9 1.1
v -0.9 0.9 1.1
v 0.1 1 1.2
v 1.6 1 1.2
v 0.1 1 1.1
v 1.6 1 1.1
v 0.7 1.3 1.2
v 0.9 1.3 1.2
v 0.7 1.3 1.1
v 0.9 1.3 1.1
v -1.6 1.6 1.2
v -0.0999999 1.6 1.2
v 0.1 1.6 1.2
v 1.6 1.6 1.2
v -1.6 1.6 1.1
v -0.0999999 1.6 1.1
v 0.1 1.6 1.1
v 1.6 1.6 1.1
v -1.1 2.2 1.2
v -0.9 2.2 1.2
v 0.8 2.2 1.2
v 1 2.2 1.2
v -1.1 2.2 1.1
v -0.9 2.2 1.1
v 0.8 2.2 1.1
v 1 2.2 1.1
v -1.7 2.8 1.2
v 1.7 2.8 1.2
v -1.7 2.8 0.5
v -1.4 2.8 0.5
v 1.4 2.8 0.5
v 1.7 2.8 0.5
v -1.4 2.8 -0.9
v 1.4 2.8 -0.9
v -1.7 2.9 0.5
v -1.4 2.9 0.5
v 1.4 2.9 0.5
v 1.7 2.9 0.5
v -1.7 2.9 0.3
v -1.4 2.9 0.3
v 1.4 2.9 0.3
v 1.7 2.9 0.3
v -1.7 3 0.3
v -1.4 3 0.3
v 1.4 3 0.3
v 1.7 3 0.3
v -1.7 3 0.0999999
v -1.4 3 0.0999999
v 1.4 3 0.0999999
v 1.7 3 0.0999999
v -1.7 3.1 0.0999999
v -1.4 3.1 0.0999999
v 1.4 3.1 0.0999999
v 1.7 3.1 0.0999999
v -1.7 3.1 -0.1
v -1.4 3.1 -0.1
v 1.4 3.1 -0.1
v 1.7 3.1 -0.1
v -1.7 3.2 -0.1
v -1.4 3.2 -0.1
v 1.4 3.2 -0.1
v 1.7 3.2 -0.1
v -1.7 3.2 -0.9
v -1.4 3.2 -0.9
v 1.4 3.2 -0.9
v 1.7 3.2 -0.9
v -1.4 3.2 -1.2
v 1.4 3.2 -1.2
v -1.7 3.3 -0.9
v -1.4 3.3 -0.9
v 1.4 3.3 -0.9
v 1.7 3.3 -0.9
v -1.7 3.3 -1.2
v -1.4 3.3 -1.2
v 1.4 3.3 -1.2
v 1.7 3.3 -1.2

# faces
f 5/4/1 2/4/1 1/4/1
f 6/4/1 2/4/1 5/4/1
f 7/4/1 4/4/1 3/4/1
f 8/4/1 4/4/1 7/4/1
f 9/4/1 2/4/1 6/4/1
f 10/4/1 7/4/1 3/4/1
f 11/4/1 9/4/1 6/4/1
f 11/4/1 10/4/1 9/4/1
f 12/4/1 7/4/1 10/4/1
f 12/4/1 10/4/1 11/4/1
f 13/1/1 12/1/1 11/1/1
f 14/1/1 12/1/1 13/1/1
f 15/1/1 12/1/1 14/1/1
f 16/4/1 15/4/1 14/4/1
f 17/4/1 15/4/1 16/4/1
f 18/4/1 15/4/1 17/4/1
f 19/4/1 15/4/1 18/4/1
f 20/4/1 15/4/1 19/4/1
f 21/4/1 15/4/1 20/4/1
f 22/4/1 15/4/1 21/4/1
f 23/4/1 15/4/1 22/4/1
f 24/4/1 15/4/1 23/4/1
f 25/4/1 15/4/1 24/4/1
f 28/5/1 27/5/1 26/5/1
f 29/5/1 27/5/1 28/5/1
f 32/5/1 31/5/1 30/5/1
f 33/5/1 31/5/1 32/5/1
f 36/4/1 35/4/1 34/4/1
f 37/4/1 35/4/1 36/4/1
f 40/4/1 39/4/1 38/4/1
f 41/4/1 39/4/1 40/4/1
f 44/5/1 43/5/1 42/5/1
f 45/5/1 43/5/1 44/5/1
f 48/5/1 47/5/1 46/5/1
f 49/5/1 47/5/1 48/5/1
f 52/5/1 51/5/1 50/5/1
f 53/5/1 51/5/1 52/5/1
f 56/4/1 55/4/1 54/4/1
f 57/4/1 55/4/1 56/4/1
f 58/4/1 55/4/1 57/4/1
f 59/4/1 55/4/1 58/4/1
f 60/4/1 55/4/1 59/4/1
f 61/4/1 55/4/1 60/4/1
f 62/4/1 55/4/1 61/4/1
f 63/4/1 55/4/1 62/4/1
f 65/4/1 64/4/1 63/4/1
f 66/4/1 64/4/1 65/4/1
f 71/4/1 68/4/1 67/4/1
f 72/4/1 68/4/1 71/4/1
f 73/4/1 70/4/1 69/4/1
f 74/4/1 70/4/1 73/4/1
f 75/4/1 68/4/1 72/4/1
f 76/4/1 68/4/1 75/4/1
f 77/4/1 73/4/1 69/4/1
f 78/4/1 73/4/1 77/4/1
f 81/4/1 80/4/1 79/4/1
f 82/4/1 80/4/1 81/4/1
f 85/4/1 84/4/1 83/4/1
f 86/4/1 84/4/1 85/4/1
f 89/4/1 88/4/1 87/4/1
f 90/4/1 88/4/1 89/4/1
f 91/4/2 92/4/2 93/4/2
f 93/4/2 92/4/2 94/4/2
f 95/4/2 96/4/2 97/4/2
f 97/4/2 96/4/2 98/4/2
f 99/4/2 100/4/2 103/4/2
f 103/4/2 100/4/2 104/4/2
f 101/4/2 102/4/2 105/4/2
f 105/4/2 102/4/2 106/4/2
f 104/4/2 100/4/2 107/4/2
f 107/4/2 100/4/2 108/4/2
f 101/4/2 105/4/2 109/4/2
f 109/4/2 105/4/2 110/4/2
f 111/4/2 112/4/2 113/4/2
f 113/4/2 112/4/2 114/4/2
f 114/4/2 112/4/2 115/4/2
f 115/4/2 112/4/2 116/4/2
f 116/4/2 112/4/2 117/4/2
f 117/4/2 112/4/2 118/4/2
f 118/4/2 112/4/2 119/4/2
f 119/4/2 112/4/2 120/4/2
f 120/4/2 121/4/2 122/4/2
f 122/4/2 121/4/2 123/4/2
f 124/5/2 125/5/2 126/5/2
f 126/5/2 125/5/2 127/5/2
f 128/5/2 129/5/2 130/5/2
f 130/5/2 129/5/2 131/5/2
f 132/4/2 133/4/2 134/4/2
f 134/4/2 133/4/2 135/4/2
f 136/4/2 137/4/2 138/4/2
f 138/4/2 137/4/2 139/4/2
f 140/4/2 141/4/2 142/4/2
f 142/4/2 141/4/2 143/4/2
f 144/5/2 145/5/2 146/5/2
f 146/5/2 145/5/2 147/5/2
f 148/5/2 149/5/2 150/5/2
f 150/5/2 149/5/2 151/5/2
f 152/5/2 153/5/2 154/5/2
f 154/5/2 153/5/2 155/5/2
f 156/4/2 157/4/2 160/4/2
f 160/4/2 157/4/2 161/4/2
f 158/4/2 159/4/2 162/4/2
f 162/4/2 159/4/2 163/4/2
f 161/4/2 157/4/2 164/4/2
f 158/4/2 162/4/2 165/4/2
f 161/4/2 164/4/2 166/4/2
f 164/4/2 165/4/2 166/4/2
f 165/4/2 162/4/2 167/4/2
f 166/4/2 165/4/2 167/4/2
f 166/1/2 167/1/2 168/1/2
f 168/1/2 167/1/2 169/1/2
f 169/1/2 167/1/2 170/1/2
f 169/4/2 170/4/2 171/4/2
f 171/4/2 170/4/2 172/4/2
f 172/4/2 170/4/2 173/4/2
f 173/4/2 170/4/2 174/4/2
f 174/4/2 170/4/2 175/4/2
f 175/4/2 170/4/2 176/4/2
f 176/4/2 170/4/2 177/4/2
f 177/4/2 170/4/2 178/4/2
f 178/4/2 170/4/2 179/4/2
f 179/4/2 170/4/2 180/4/2
f 183/4/3 182/4/3 181/4/3
f 184/4/3 182/4/3 183/4/3
f 187/4/3 186/4/3 185/4/3
f 188/4/3 186/4/3 187/4/3
f 192/4/3 190/4/3 189/4/3
f 193/4/3 190/4/3 192/4/3
f 194/4/3 190/4/3 193/4/3
f 195/4/3 190/4/3 194/4/3
f 196/4/3 192/4/3 189/4/3
f 197/4/3 192/4/3 196/4/3
f 202/5/3 199/5/3 198/5/3
f 203/5/3 199/5/3 202/5/3
f 204/5/3 201/5/3 200/5/3
f 205/5/3 201/5/3 204/5/3
f 206/4/3 192/4/3 197/4/3
f 207/4/3 194/4/3 193/4/3
f 208/4/3 194/4/3 207/4/3
f 209/4/3 190/4/3 195/4/3
f 210/4/3 208/4/3 207/4/3
f 210/4/3 209/4/3 208/4/3
f 210/4/3 206/4/3 197/4/3
f 210/4/3 207/4/3 206/4/3
f 211/4/3 209/4/3 210/4/3
f 212/4/3 209/4/3 211/4/3
f 213/4/3 209/4/3 212/4/3
f 214/4/3 209/4/3 213/4/3
f 215/4/3 190/4/3 209/4/3
f 215/4/3 209/4/3 214/4/3
f 222/5/3 217/5/3 216/5/3
f 223/5/3 217/5/3 222/5/3
f 224/5/3 219/5/3 218/5/3
f 225/5/3 219/5/3 224/5/3
f 226/5/3 221/5/3 220/5/3
f 227/5/3 221/5/3 226/5/3
f 229/4/3 210/4/3 197/4/3
f 230/4/3 210/4/3 229/4/3
f 230/4/3 229/4/3 228/4/3
f 231/4/3 212/4/3 211/4/3
f 232/4/3 212/4/3 231/4/3
f 233/4/3 214/4/3 213/4/3
f 234/4/3 214/4/3 233/4/3
f 235/4/3 190/4/3 215/4/3
f 236/4/3 232/4/3 231/4/3
f 236/4/3 235/4/3 234/4/3
f 236/4/3 234/4/3 233/4/3
f 236/4/3 233/4/3 232/4/3
f 236/4/3 230/4/3 228/4/3
f 236/4/3 231/4/3 230/4/3
f 237/1/3 191/1/3 190/1/3
f 237/4/3 235/4/3 236/4/3
f 237/4/3 190/4/3 235/4/3
f 238/1/3 191/1/3 237/1/3
f 243/3/3 240/3/3 239/3/3
f 244/3/3 240/3/3 243/3/3
f 245/3/3 242/3/3 241/3/3
f 246/3/3 242/3/3 245/3/3
f 247/3/3 243/3/3 239/3/3
f 248/3/3 240/3/3 244/3/3
f 249/3/3 245/3/3 241/3/3
f 250/3/3 242/3/3 246/3/3
f 251/3/3 247/3/3 239/3/3
f 251/3/3 248/3/3 247/3/3
f 252/3/3 240/3/3 248/3/3
f 252/3/3 248/3/3 251/3/3
f 253/3/3 250/3/3 249/3/3
f 253/3/3 249/3/3 241/3/3
f 254/3/3 242/3/3 250/3/3
f 254/3/3 250/3/3 253/3/3
f 261/3/3 256/3/3 255/3/3
f 262/3/3 256/3/3 261/3/3
f 263/3/3 258/3/3 257/3/3
f 264/3/3 258/3/3 263/3/3
f 265/3/3 260/3/3 259/3/3
f 266/3/3 260/3/3 265/3/3
f 267/3/3 261/3/3 255/3/3
f 268/3/3 256/3/3 262/3/3
f 269/3/3 263/3/3 257/3/3
f 270/3/3 258/3/3 264/3/3
f 271/3/3 265/3/3 259/3/3
f 272/3/3 260/3/3 266/3/3
f 273/3/3 267/3/3 255/3/3
f 273/3/3 268/3/3 267/3/3
f 274/3/3 256/3/3 268/3/3
f 274/3/3 268/3/3 273/3/3
f 275/3/3 269/3/3 257/3/3
f 275/3/3 270/3/3 269/3/3
f 276/3/3 258/3/3 270/3/3
f 276/3/3 270/3/3 275/3/3
f 277/3/3 272/3/3 271/3/3
f 277/3/3 271/3/3 259/3/3
f 278/3/3 260/3/3 272/3/3
f 278/3/3 272/3/3 277/3/3
f 281/4/3 280/4/3 279/4/3
f 282/4/3 280/4/3 281/4/3
f 285/4/3 284/4/3 283/4/3
f 286/4/3 284/4/3 285/4/3
f 289/4/3 288/4/3 287/4/3
f 290/4/3 288/4/3 289/4/3
f 293/4/3 292/4/3 291/4/3
f 294/4/3 292/4/3 293/4/3
f 297/4/3 296/4/3 295/4/3
f 298/4/3 296/4/3 297/4/3
f 301/4/3 300/4/3 299/4/3
f 302/4/3 300/4/3 301/4/3
f 305/4/3 304/4/3 303/4/3
f 306/4/3 304/4/3 305/4/3
f 309/4/3 308/4/3 307/4/3
f 310/4/3 308/4/3 309/4/3
f 314/4/3 312/4/3 311/4/3
f 315/4/3 312/4/3 314/4/3
f 316/4/3 314/4/3 313/4/3
f 317/4/3 314/4/3 316/4/3
f 319/4/3 318/4/3 317/4/3
f 320/4/3 318/4/3 319/4/3
f 323/4/3 322/4/3 321/4/3
f 324/4/3 322/4/3 323/4/3
f 327/4/3 326/4/3 325/4/3
f 328/4/3 326/4/3 327/4/3
f 329/4/4 330/4/4 331/4/4
f 331/4/4 330/4/4 332/4/4
f 333/4/4 334/4/4 335/4/4
f 335/4/4 334/4/4 336/4/4
f 337/4/4 338/4/4 341/4/4
f 341/4/4 338/4/4 342/4/4
f 339/4/4 340/4/4 343/4/4
f 343/4/4 340/4/4 344/4/4
f 339/4/4 343/4/4 345/4/4
f 342/4/4 338/4/4 348/4/4
f 347/4/4 348/4/4 349/4/4
f 338/1/4 339/1/4 350/1/4
f 349/4/4 348/4/4 350/4/4
f 348/4/4 338/4/4 350/4/4
f 345/4/4 346/4/4 351/4/4
f 350/1/4 339/1/4 351/1/4
f 339/4/4 345/4/4 351/4/4
f 351/4/4 346/4/4 352/4/4
f 353/4/4 354/4/4 355/4/4
f 355/4/4 354/4/4 356/4/4
f 357/4/4 358/4/4 359/4/4
f 359/4/4 358/4/4 360/4/4
f 365/4/5 362/4/5 361/4/5
f 366/4/5 362/4/5 365/4/5
f 367/4/5 364/4/5 363/4/5
f 368/4/5 364/4/5 367/4/5
f 373/4/5 370/4/5 369/4/5
f 374/4/5 370/4/5 373/4/5
f 375/4/5 372/4/5 371/4/5
f 376/4/5 372/4/5 375/4/5
f 380/4/5 378/4/5 377/4/5
f 381/4/5 378/4/5 380/4/5
f 383/4/5 380/4/5 379/4/5
f 383/4/5 382/4/5 381/4/5
f 383/4/5 381/4/5 380/4/5
f 384/4/5 382/4/5 383/4/5
f 385/4/5 382/4/5 384/4/5
f 386/4/5 382/4/5 385/4/5
f 387/4/5 385/4/5 384/4/5
f 388/4/5 385/4/5 387/4/5
f 391/5/5 390/5/5 389/5/5
f 392/5/5 390/5/5 391/5/5
f 395/5/5 394/5/5 393/5/5
f 396/5/5 394/5/5 395/5/5
f 399/4/5 398/4/5 397/4/5
f 400/4/5 398/4/5 399/4/5
f 403/5/5 402/5/5 401/5/5
f 404/5/5 402/5/5 403/5/5
f 409/4/5 406/4/5 405/4/5
f 410/4/5 406/4/5 409/4/5
f 411/4/5 408/4/5 407/4/5
f 412/4/5 408/4/5 411/4/5
f 417/5/5 414/5/5 413/5/5
f 418/5/5 414/5/5 417/5/5
f 419/5/5 416/5/5 415/5/5
f 420/5/5 416/5/5 419/5/5
f 425/4/5 422/4/5 421/4/5
f 426/4/5 422/4/5 425/4/5
f 427/4/5 424/4/5 423/4/5
f 428/4/5 424/4/5 427/4/5
f 429/4/6 430/4/6 433/4/6
f 433/4/6 430/4/6 434/4/6
f 431/4/6 432/4/6 435/4/6
f 435/4/6 432/4/6 436/4/6
f 437/4/6 438/4/6 441/4/6
f 441/4/6 438/4/6 442/4/6
f 439/4/6 440/4/6 443/4/6
f 443/4/6 440/4/6 444/4/6
f 445/4/6 446/4/6 449/4/6
f 449/4/6 446/4/6 450/4/6
f 447/4/6 448/4/6 451/4/6
f 451/4/6 448/4/6 452/4/6
f 453/5/6 454/5/6 455/5/6
f 455/5/6 454/5/6 456/5/6
f 457/5/6 458/5/6 459/5/6
f 459/5/6 458/5/6 460/5/6
f 461/4/6 462/4/6 463/4/6
f 463/4/6 462/4/6 464/4/6
f 465/5/6 466/5/6 467/5/6
f 467/5/6 466/5/6 468/5/6
f 469/4/6 470/4/6 473/4/6
f 473/4/6 470/4/6 474/4/6
f 471/4/6 472/4/6 475/4/6
f 475/4/6 472/4/6 476/4/6
f 477/5/6 478/5/6 481/5/6
f 481/5/6 478/5/6 482/5/6
f 479/5/6 480/5/6 483/5/6
f 483/5/6 480/5/6 484/5/6
f 485/1/6 486/1/6 487/1/6
f 487/1/6 486/1/6 488/1/6
f 488/1/6 486/1/6 489/1/6
f 489/1/6 486/1/6 490/1/6
f 488/1/6 489/1/6 491/1/6
f 491/1/6 489/1/6 492/1/6
f 493/4/6 494/4/6 497/4/6
f 497/4/6 494/4/6 498/4/6
f 495/4/6 496/4/6 499/4/6
f 499/4/6 496/4/6 500/4/6
f 501/4/6 502/4/6 505/4/6
f 505/4/6 502/4/6 506/4/6
f 503/4/6 504/4/6 507/4/6
f 507/4/6 504/4/6 508/4/6
f 509/4/6 510/4/6 513/4/6
f 513/4/6 510/4/6 514/4/6
f 511/4/6 512/4/6 515/4/6
f 515/4/6 512/4/6 516/4/6
f 517/4/6 518/4/6 521/4/6
f 521/4/6 518/4/6 522/4/6
f 519/4/6 520/4/6 523/4/6
f 523/4/6 520/4/6 524/4/6
f 522/4/6 523/4/6 525/4/6
f 525/4/6 523/4/6 526/4/6
f 527/4/6 528/4/6 531/4/6
f 531/4/6 528/4/6 532/4/6
f 529/4/6 530/4/6 533/4/6
f 533/4/6 530/4/6 534/4/6
