# MagicaVoxel @ Ephtracy

# group
o 

# material
mtllib Lantern.mtl
usemtl palette

# normals
vn -1 0 0
vn 1 0 0
vn 0 0 1
vn 0 0 -1
vn 0 -1 0
vn 0 1 0

# texcoords
vt 0.0332031 0.5
vt 0.0917969 0.5
vt 0.982422 0.5
vt 0.986328 0.5
vt 0.990234 0.5

# verts
v -0.5 0 0.4
v -0.5 0 -0.4
v -0.5 0.1 0.4
v -0.5 0.1 -0.4
v -0.5 0.4 0.3
v -0.5 0.4 -0.3
v -0.5 0.7 0.4
v -0.5 0.7 0.3
v -0.5 0.7 -0.3
v -0.5 0.7 -0.4
v -0.5 0.9 0.4
v -0.5 0.9 0.3
v -0.5 0.9 -0.3
v -0.5 0.9 -0.4
v -0.5 1.2 0.4
v -0.5 1.2 0.3
v -0.5 1.2 -0.3
v -0.5 1.2 -0.4
v -0.5 1.4 0.4
v -0.5 1.4 0.3
v -0.5 1.4 -0.3
v -0.5 1.4 -0.4
v -0.5 1.7 0.3
v -0.5 1.7 -0.3
v -0.4 0 0.5
v -0.4 0 0.4
v -0.4 0 -0.4
v -0.4 0 -0.5
v -0.4 0.1 0.5
v -0.4 0.1 0.4
v -0.4 0.1 -0.4
v -0.4 0.1 -0.5
v -0.4 0.3 0.3
v -0.4 0.3 -0.3
v -0.4 0.4 0.3
v -0.4 0.4 -0.3
v -0.4 1.7 0.3
v -0.4 1.7 -0.3
v -0.4 1.8 0.3
v -0.4 1.8 -0.3
v -0.3 0.1 0.3
v -0.3 0.1 -0.3
v -0.3 0.3 0.3
v -0.3 0.3 -0.3
v -0.3 1.9 0.1
v -0.3 1.9 -0.1
v -0.3 2.3 0.1
v -0.3 2.3 -0.1
v -0.2 0.4 0.2
v -0.2 0.4 -0.2
v -0.2 0.5 0.2
v -0.2 0.5 -0.2
v -0.2 1.8 0.2
v -0.2 1.8 -0.2
v -0.2 1.9 0.2
v -0.2 1.9 0.1
v -0.2 1.9 -0.1
v -0.2 1.9 -0.2
v -0.2 2.3 0.1
v -0.2 2.3 -0.1
v -0.2 2.4 0.1
v -0.2 2.4 -0.1
v -0.1 0.5 0.1
v -0.1 0.5 -0.1
v -0.1 0.6 0.1
v -0.1 0.6 0
v -0.1 0.7 0
v -0.1 0.7 -0.1
v -0.1 0.9 0
v -0.1 0.9 -0.1
v -0.1 1 0.1
v -0.1 1 0
v 0.1 1.9 0.1
v 0.1 1.9 -0.1
v 0.1 2 0.1
v 0.1 2 -0.1
v 0.1 2.2 0.1
v 0.1 2.2 -0.1
v 0.1 2.3 0.1
v 0.1 2.3 -0.1
v 0.2 2 0.1
v 0.2 2 -0.1
v 0.2 2.2 0.1
v 0.2 2.2 -0.1
v 0.3 0.4 0.3
v 0.3 0.4 -0.3
v 0.3 0.5 0.3
v 0.3 0.5 -0.3
v 0.3 1.6 0.3
v 0.3 1.6 -0.3
v 0.3 1.7 0.3
v 0.3 1.7 -0.3
v 0.4 0.5 0.3
v 0.4 0.5 -0.3
v 0.4 0.7 0.3
v 0.4 0.7 -0.3
v 0.4 0.9 0.3
v 0.4 0.9 -0.3
v 0.4 1.2 0.3
v 0.4 1.2 -0.3
v 0.4 1.4 0.3
v 0.4 1.4 -0.3
v 0.4 1.6 0.3
v 0.4 1.6 -0.3
v -0.4 0.5 0.3
v -0.4 0.5 -0.3
v -0.4 0.7 0.3
v -0.4 0.7 -0.3
v -0.4 0.9 0.3
v -0.4 0.9 -0.3
v -0.4 1.2 0.3
v -0.4 1.2 -0.3
v -0.4 1.4 0.3
v -0.4 1.4 -0.3
v -0.4 1.6 0.3
v -0.4 1.6 -0.3
v -0.3 0.4 0.3
v -0.3 0.4 -0.3
v -0.3 0.5 0.3
v -0.3 0.5 -0.3
v -0.3 1.6 0.3
v -0.3 1.6 -0.3
v -0.3 1.7 0.3
v -0.3 1.7 -0.3
v -0.2 2 0.1
v -0.2 2 -0.1
v -0.2 2.2 0.1
v -0.2 2.2 -0.1
v -0.1 1.9 0.1
v -0.1 1.9 -0.1
v -0.1 2 0.1
v -0.1 2 -0.1
v -0.1 2.2 0.1
v -0.1 2.2 -0.1
v -0.1 2.3 0.1
v -0.1 2.3 -0.1
v 0 0.9 0.1
v 0 0.9 0
v 0 1 0.1
v 0 1 0
v 0.1 0.5 0.1
v 0.1 0.5 -0.1
v 0.1 0.7 0.1
v 0.1 0.7 -0.1
v 0.1 0.9 0.1
v 0.1 0.9 -0.1
v 0.2 0.4 0.2
v 0.2 0.4 -0.2
v 0.2 0.5 0.2
v 0.2 0.5 -0.2
v 0.2 1.8 0.2
v 0.2 1.8 -0.2
v 0.2 1.9 0.2
v 0.2 1.9 0.1
v 0.2 1.9 -0.1
v 0.2 1.9 -0.2
v 0.2 2.3 0.1
v 0.2 2.3 -0.1
v 0.2 2.4 0.1
v 0.2 2.4 -0.1
v 0.3 0.1 0.3
v 0.3 0.1 -0.3
v 0.3 0.3 0.3
v 0.3 0.3 -0.3
v 0.3 1.9 0.1
v 0.3 1.9 -0.1
v 0.3 2.3 0.1
v 0.3 2.3 -0.1
v 0.4 0 0.5
v 0.4 0 0.4
v 0.4 0 -0.4
v 0.4 0 -0.5
v 0.4 0.1 0.5
v 0.4 0.1 0.4
v 0.4 0.1 -0.4
v 0.4 0.1 -0.5
v 0.4 0.3 0.3
v 0.4 0.3 -0.3
v 0.4 0.4 0.3
v 0.4 0.4 -0.3
v 0.4 1.7 0.3
v 0.4 1.7 -0.3
v 0.4 1.8 0.3
v 0.4 1.8 -0.3
v 0.5 0 0.4
v 0.5 0 -0.4
v 0.5 0.1 0.4
v 0.5 0.1 -0.4
v 0.5 0.4 0.3
v 0.5 0.4 -0.3
v 0.5 0.7 0.4
v 0.5 0.7 0.3
v 0.5 0.7 -0.3
v 0.5 0.7 -0.4
v 0.5 0.9 0.4
v 0.5 0.9 0.3
v 0.5 0.9 -0.3
v 0.5 0.9 -0.4
v 0.5 1.2 0.4
v 0.5 1.2 0.3
v 0.5 1.2 -0.3
v 0.5 1.2 -0.4
v 0.5 1.4 0.4
v 0.5 1.4 0.3
v 0.5 1.4 -0.3
v 0.5 1.4 -0.4
v 0.5 1.7 0.3
v 0.5 1.7 -0.3
v -0.4 0 0.5
v -0.4 0.1 0.5
v 0.4 0 0.5
v 0.4 0.1 0.5
v -0.5 0 0.4
v -0.5 0.1 0.4
v -0.5 0.7 0.4
v -0.5 0.9 0.4
v -0.5 1.2 0.4
v -0.5 1.4 0.4
v -0.4 0 0.4
v -0.4 0.1 0.4
v 0.4 0 0.4
v 0.4 0.1 0.4
v 0.5 0 0.4
v 0.5 0.1 0.4
v 0.5 0.7 0.4
v 0.5 0.9 0.4
v 0.5 1.2 0.4
v 0.5 1.4 0.4
v -0.5 0.4 0.3
v -0.5 0.7 0.3
v -0.5 0.9 0.3
v -0.5 1.2 0.3
v -0.5 1.4 0.3
v -0.5 1.7 0.3
v -0.4 0.3 0.3
v -0.4 0.4 0.3
v -0.4 0.5 0.3
v -0.4 0.7 0.3
v -0.4 0.9 0.3
v -0.4 1.2 0.3
v -0.4 1.4 0.3
v -0.4 1.6 0.3
v -0.4 1.7 0.3
v -0.4 1.8 0.3
v -0.3 0.1 0.3
v -0.3 0.3 0.3
v -0.3 0.4 0.3
v -0.3 0.5 0.3
v -0.3 1.6 0.3
v -0.3 1.7 0.3
v 0.3 0.1 0.3
v 0.3 0.3 0.3
v 0.3 0.4 0.3
v 0.3 0.5 0.3
v 0.3 1.6 0.3
v 0.3 1.7 0.3
v 0.4 0.3 0.3
v 0.4 0.4 0.3
v 0.4 0.5 0.3
v 0.4 0.7 0.3
v 0.4 0.9 0.3
v 0.4 1.2 0.3
v 0.4 1.4 0.3
v 0.4 1.6 0.3
v 0.4 1.7 0.3
v 0.4 1.8 0.3
v 0.5 0.4 0.3
v 0.5 0.7 0.3
v 0.5 0.9 0.3
v 0.5 1.2 0.3
v 0.5 1.4 0.3
v 0.5 1.7 0.3
v -0.2 0.4 0.2
v -0.2 0.5 0.2
v -0.2 1.8 0.2
v -0.2 1.9 0.2
v 0.2 0.4 0.2
v 0.2 0.5 0.2
v 0.2 1.8 0.2
v 0.2 1.9 0.2
v -0.3 1.9 0.1
v -0.3 2.3 0.1
v -0.2 1.9 0.1
v -0.2 2 0.1
v -0.2 2.2 0.1
v -0.2 2.3 0.1
v -0.2 2.4 0.1
v -0.1 0.5 0.1
v -0.1 0.6 0.1
v -0.1 1 0.1
v -0.1 1.9 0.1
v -0.1 2 0.1
v -0.1 2.2 0.1
v -0.1 2.3 0.1
v 0 0.6 0.1
v 0 0.7 0.1
v 0 0.9 0.1
v 0 1 0.1
v 0.1 0.5 0.1
v 0.1 0.7 0.1
v 0.1 0.9 0.1
v 0.1 1.9 0.1
v 0.1 2 0.1
v 0.1 2.2 0.1
v 0.1 2.3 0.1
v 0.2 1.9 0.1
v 0.2 2 0.1
v 0.2 2.2 0.1
v 0.2 2.3 0.1
v 0.2 2.4 0.1
v 0.3 1.9 0.1
v 0.3 2.3 0.1
v -0.4 0.7 -0.3
v -0.4 0.9 -0.3
v -0.4 1.2 -0.3
v -0.4 1.4 -0.3
v 0.4 0.7 -0.3
v 0.4 0.9 -0.3
v 0.4 1.2 -0.3
v 0.4 1.4 -0.3
v -0.4 0.7 0.3
v -0.4 0.9 0.3
v -0.4 1.2 0.3
v -0.4 1.4 0.3
v 0.4 0.7 0.3
v 0.4 0.9 0.3
v 0.4 1.2 0.3
v 0.4 1.4 0.3
v -0.1 0.9 0
v -0.1 1 0
v 0 0.9 0
v 0 1 0
v -0.3 1.9 -0.1
v -0.3 2.3 -0.1
v -0.2 1.9 -0.1
v -0.2 2 -0.1
v -0.2 2.2 -0.1
v -0.2 2.3 -0.1
v -0.2 2.4 -0.1
v -0.1 0.5 -0.1
v -0.1 0.7 -0.1
v -0.1 0.9 -0.1
v -0.1 1.9 -0.1
v -0.1 2 -0.1
v -0.1 2.2 -0.1
v -0.1 2.3 -0.1
v 0.1 0.5 -0.1
v 0.1 0.7 -0.1
v 0.1 0.9 -0.1
v 0.1 1.9 -0.1
v 0.1 2 -0.1
v 0.1 2.2 -0.1
v 0.1 2.3 -0.1
v 0.2 1.9 -0.1
v 0.2 2 -0.1
v 0.2 2.2 -0.1
v 0.2 2.3 -0.1
v 0.2 2.4 -0.1
v 0.3 1.9 -0.1
v 0.3 2.3 -0.1
v -0.2 0.4 -0.2
v -0.2 0.5 -0.2
v -0.2 1.8 -0.2
v -0.2 1.9 -0.2
v 0.2 0.4 -0.2
v 0.2 0.5 -0.2
v 0.2 1.8 -0.2
v 0.2 1.9 -0.2
v -0.5 0.4 -0.3
v -0.5 0.7 -0.3
v -0.5 0.9 -0.3
v -0.5 1.2 -0.3
v -0.5 1.4 -0.3
v -0.5 1.7 -0.3
v -0.4 0.3 -0.3
v -0.4 0.4 -0.3
v -0.4 0.5 -0.3
v -0.4 0.7 -0.3
v -0.4 0.9 -0.3
v -0.4 1.2 -0.3
v -0.4 1.4 -0.3
v -0.4 1.6 -0.3
v -0.4 1.7 -0.3
v -0.4 1.8 -0.3
v -0.3 0.1 -0.3
v -0.3 0.3 -0.3
v -0.3 0.4 -0.3
v -0.3 0.5 -0.3
v -0.3 1.6 -0.3
v -0.3 1.7 -0.3
v 0.3 0.1 -0.3
v 0.3 0.3 -0.3
v 0.3 0.4 -0.3
v 0.3 0.5 -0.3
v 0.3 1.6 -0.3
v 0.3 1.7 -0.3
v 0.4 0.3 -0.3
v 0.4 0.4 -0.3
v 0.4 0.5 -0.3
v 0.4 0.7 -0.3
v 0.4 0.9 -0.3
v 0.4 1.2 -0.3
v 0.4 1.4 -0.3
v 0.4 1.6 -0.3
v 0.4 1.7 -0.3
v 0.4 1.8 -0.3
v 0.5 0.4 -0.3
v 0.5 0.7 -0.3
v 0.5 0.9 -0.3
v 0.5 1.2 -0.3
v 0.5 1.4 -0.3
v 0.5 1.7 -0.3
v -0.5 0 -0.4
v -0.5 0.1 -0.4
v -0.5 0.7 -0.4
v -0.5 0.9 -0.4
v -0.5 1.2 -0.4
v -0.5 1.4 -0.4
v -0.4 0 -0.4
v -0.4 0.1 -0.4
v 0.4 0 -0.4
v 0.4 0.1 -0.4
v 0.5 0 -0.4
v 0.5 0.1 -0.4
v 0.5 0.7 -0.4
v 0.5 0.9 -0.4
v 0.5 1.2 -0.4
v 0.5 1.4 -0.4
v -0.4 0 -0.5
v -0.4 0.1 -0.5
v 0.4 0 -0.5
v 0.4 0.1 -0.5
v -0.4 0 0.5
v 0.4 0 0.5
v -0.5 0 0.4
v -0.4 0 0.4
v 0.4 0 0.4
v 0.5 0 0.4
v -0.5 0 -0.4
v -0.4 0 -0.4
v 0.4 0 -0.4
v 0.5 0 -0.4
v -0.4 0 -0.5
v 0.4 0 -0.5
v -0.4 0.3 0.3
v -0.3 0.3 0.3
v 0.3 0.3 0.3
v 0.4 0.3 0.3
v -0.4 0.3 -0.3
v -0.3 0.3 -0.3
v 0.3 0.3 -0.3
v 0.4 0.3 -0.3
v -0.5 0.4 0.3
v -0.4 0.4 0.3
v 0.4 0.4 0.3
v 0.5 0.4 0.3
v -0.5 0.4 -0.3
v -0.4 0.4 -0.3
v 0.4 0.4 -0.3
v 0.5 0.4 -0.3
v -0.5 0.7 0.4
v 0.5 0.7 0.4
v -0.5 0.7 0.3
v -0.4 0.7 0.3
v 0.4 0.7 0.3
v 0.5 0.7 0.3
v -0.5 0.7 -0.3
v -0.4 0.7 -0.3
v 0.4 0.7 -0.3
v 0.5 0.7 -0.3
v -0.5 0.7 -0.4
v 0.5 0.7 -0.4
v -0.5 1.2 0.4
v 0.5 1.2 0.4
v -0.5 1.2 0.3
v -0.4 1.2 0.3
v 0.4 1.2 0.3
v 0.5 1.2 0.3
v -0.5 1.2 -0.3
v -0.4 1.2 -0.3
v 0.4 1.2 -0.3
v 0.5 1.2 -0.3
v -0.5 1.2 -0.4
v 0.5 1.2 -0.4
v -0.4 1.6 0.3
v -0.3 1.6 0.3
v 0.3 1.6 0.3
v 0.4 1.6 0.3
v -0.4 1.6 -0.3
v -0.3 1.6 -0.3
v 0.3 1.6 -0.3
v 0.4 1.6 -0.3
v -0.3 1.7 0.3
v 0.3 1.7 0.3
v -0.3 1.7 -0.3
v 0.3 1.7 -0.3
v -0.3 1.9 0.1
v -0.2 1.9 0.1
v 0.2 1.9 0.1
v 0.3 1.9 0.1
v -0.3 1.9 -0.1
v -0.2 1.9 -0.1
v 0.2 1.9 -0.1
v 0.3 1.9 -0.1
v -0.2 2.2 0.1
v -0.1 2.2 0.1
v 0.1 2.2 0.1
v 0.2 2.2 0.1
v -0.2 2.2 -0.1
v -0.1 2.2 -0.1
v 0.1 2.2 -0.1
v 0.2 2.2 -0.1
v -0.1 2.3 0.1
v 0.1 2.3 0.1
v -0.1 2.3 -0.1
v 0.1 2.3 -0.1
v -0.4 0.1 0.5
v 0.4 0.1 0.5
v -0.5 0.1 0.4
v -0.4 0.1 0.4
v 0.4 0.1 0.4
v 0.5 0.1 0.4
v -0.3 0.1 0.3
v 0.3 0.1 0.3
v -0.3 0.1 -0.3
v 0.3 0.1 -0.3
v -0.5 0.1 -0.4
v -0.4 0.1 -0.4
v 0.4 0.1 -0.4
v 0.5 0.1 -0.4
v -0.4 0.1 -0.5
v 0.4 0.1 -0.5
v -0.3 0.4 0.3
v 0.3 0.4 0.3
v -0.2 0.4 0.2
v 0.2 0.4 0.2
v -0.2 0.4 -0.2
v 0.2 0.4 -0.2
v -0.3 0.4 -0.3
v 0.3 0.4 -0.3
v -0.4 0.5 0.3
v -0.3 0.5 0.3
v 0.3 0.5 0.3
v 0.4 0.5 0.3
v -0.2 0.5 0.2
v 0.2 0.5 0.2
v -0.1 0.5 0.1
v 0.1 0.5 0.1
v -0.1 0.5 -0.1
v 0.1 0.5 -0.1
v -0.2 0.5 -0.2
v 0.2 0.5 -0.2
v -0.4 0.5 -0.3
v -0.3 0.5 -0.3
v 0.3 0.5 -0.3
v 0.4 0.5 -0.3
v -0.5 0.9 0.4
v 0.5 0.9 0.4
v -0.5 0.9 0.3
v -0.4 0.9 0.3
v 0.4 0.9 0.3
v 0.5 0.9 0.3
v 0 0.9 0.1
v 0.1 0.9 0.1
v -0.1 0.9 0
v 0 0.9 0
v -0.1 0.9 -0.1
v 0.1 0.9 -0.1
v -0.5 0.9 -0.3
v -0.4 0.9 -0.3
v 0.4 0.9 -0.3
v 0.5 0.9 -0.3
v -0.5 0.9 -0.4
v 0.5 0.9 -0.4
v -0.1 1 0.1
v 0 1 0.1
v -0.1 1 0
v 0 1 0
v -0.5 1.4 0.4
v 0.5 1.4 0.4
v -0.5 1.4 0.3
v -0.4 1.4 0.3
v 0.4 1.4 0.3
v 0.5 1.4 0.3
v -0.5 1.4 -0.3
v -0.4 1.4 -0.3
v 0.4 1.4 -0.3
v 0.5 1.4 -0.3
v -0.5 1.4 -0.4
v 0.5 1.4 -0.4
v -0.5 1.7 0.3
v -0.4 1.7 0.3
v 0.4 1.7 0.3
v 0.5 1.7 0.3
v -0.5 1.7 -0.3
v -0.4 1.7 -0.3
v 0.4 1.7 -0.3
v 0.5 1.7 -0.3
v -0.4 1.8 0.3
v 0.4 1.8 0.3
v -0.2 1.8 0.2
v 0.2 1.8 0.2
v -0.2 1.8 -0.2
v 0.2 1.8 -0.2
v -0.4 1.8 -0.3
v 0.4 1.8 -0.3
v -0.2 1.9 0.2
v 0.2 1.9 0.2
v -0.2 1.9 0.1
v -0.1 1.9 0.1
v 0.1 1.9 0.1
v 0.2 1.9 0.1
v -0.2 1.9 -0.1
v -0.1 1.9 -0.1
v 0.1 1.9 -0.1
v 0.2 1.9 -0.1
v -0.2 1.9 -0.2
v 0.2 1.9 -0.2
v -0.2 2 0.1
v -0.1 2 0.1
v 0.1 2 0.1
v 0.2 2 0.1
v -0.2 2 -0.1
v -0.1 2 -0.1
v 0.1 2 -0.1
v 0.2 2 -0.1
v -0.3 2.3 0.1
v -0.2 2.3 0.1
v 0.2 2.3 0.1
v 0.3 2.3 0.1
v -0.3 2.3 -0.1
v -0.2 2.3 -0.1
v 0.2 2.3 -0.1
v 0.3 2.3 -0.1
v -0.2 2.4 0.1
v 0.2 2.4 0.1
v -0.2 2.4 -0.1
v 0.2 2.4 -0.1

# faces
f 3/4/1 2/4/1 1/4/1
f 4/4/1 2/4/1 3/4/1
f 8/5/1 6/5/1 5/5/1
f 9/5/1 6/5/1 8/5/1
f 11/5/1 8/5/1 7/5/1
f 11/5/1 10/5/1 9/5/1
f 11/5/1 9/5/1 8/5/1
f 12/5/1 10/5/1 11/5/1
f 13/5/1 10/5/1 12/5/1
f 14/5/1 10/5/1 13/5/1
f 16/5/1 13/5/1 12/5/1
f 17/5/1 13/5/1 16/5/1
f 19/5/1 16/5/1 15/5/1
f 19/5/1 18/5/1 17/5/1
f 19/5/1 17/5/1 16/5/1
f 20/5/1 18/5/1 19/5/1
f 21/5/1 18/5/1 20/5/1
f 22/5/1 18/5/1 21/5/1
f 23/5/1 21/5/1 20/5/1
f 24/5/1 21/5/1 23/5/1
f 29/4/1 26/4/1 25/4/1
f 30/4/1 26/4/1 29/4/1
f 31/4/1 28/4/1 27/4/1
f 32/4/1 28/4/1 31/4/1
f 35/5/1 34/5/1 33/5/1
f 36/5/1 34/5/1 35/5/1
f 39/5/1 38/5/1 37/5/1
f 40/5/1 38/5/1 39/5/1
f 43/4/1 42/4/1 41/4/1
f 44/4/1 42/4/1 43/4/1
f 47/5/1 46/5/1 45/5/1
f 48/5/1 46/5/1 47/5/1
f 51/3/1 50/3/1 49/3/1
f 52/3/1 50/3/1 51/3/1
f 55/5/1 54/5/1 53/5/1
f 56/5/1 54/5/1 55/5/1
f 57/5/1 54/5/1 56/5/1
f 58/5/1 54/5/1 57/5/1
f 61/5/1 60/5/1 59/5/1
f 62/5/1 60/5/1 61/5/1
f 65/1/1 64/1/1 63/1/1
f 66/1/1 64/1/1 65/1/1
f 67/2/1 66/2/1 65/2/1
f 67/1/1 64/1/1 66/1/1
f 68/1/1 64/1/1 67/1/1
f 69/2/1 67/2/1 65/2/1
f 69/2/1 68/2/1 67/2/1
f 70/2/1 68/2/1 69/2/1
f 71/2/1 69/2/1 65/2/1
f 72/2/1 69/2/1 71/2/1
f 75/5/1 74/5/1 73/5/1
f 76/5/1 74/5/1 75/5/1
f 79/5/1 78/5/1 77/5/1
f 80/5/1 78/5/1 79/5/1
f 83/5/1 82/5/1 81/5/1
f 84/5/1 82/5/1 83/5/1
f 87/5/1 86/5/1 85/5/1
f 88/5/1 86/5/1 87/5/1
f 91/5/1 90/5/1 89/5/1
f 92/5/1 90/5/1 91/5/1
f 95/5/1 94/5/1 93/5/1
f 96/5/1 94/5/1 95/5/1
f 97/5/1 96/5/1 95/5/1
f 98/5/1 96/5/1 97/5/1
f 99/5/1 98/5/1 97/5/1
f 100/5/1 98/5/1 99/5/1
f 101/5/1 100/5/1 99/5/1
f 102/5/1 100/5/1 101/5/1
f 103/5/1 102/5/1 101/5/1
f 104/5/1 102/5/1 103/5/1
f 105/5/2 106/5/2 107/5/2
f 107/5/2 106/5/2 108/5/2
f 107/5/2 108/5/2 109/5/2
f 109/5/2 108/5/2 110/5/2
f 109/5/2 110/5/2 111/5/2
f 111/5/2 110/5/2 112/5/2
f 111/5/2 112/5/2 113/5/2
f 113/5/2 112/5/2 114/5/2
f 113/5/2 114/5/2 115/5/2
f 115/5/2 114/5/2 116/5/2
f 117/5/2 118/5/2 119/5/2
f 119/5/2 118/5/2 120/5/2
f 121/5/2 122/5/2 123/5/2
f 123/5/2 122/5/2 124/5/2
f 125/5/2 126/5/2 127/5/2
f 127/5/2 126/5/2 128/5/2
f 129/5/2 130/5/2 131/5/2
f 131/5/2 130/5/2 132/5/2
f 133/5/2 134/5/2 135/5/2
f 135/5/2 134/5/2 136/5/2
f 137/2/2 138/2/2 139/2/2
f 139/2/2 138/2/2 140/2/2
f 141/1/2 142/1/2 143/1/2
f 143/1/2 142/1/2 144/1/2
f 143/2/2 144/2/2 145/2/2
f 145/2/2 144/2/2 146/2/2
f 147/3/2 148/3/2 149/3/2
f 149/3/2 148/3/2 150/3/2
f 151/5/2 152/5/2 153/5/2
f 153/5/2 152/5/2 154/5/2
f 154/5/2 152/5/2 155/5/2
f 155/5/2 152/5/2 156/5/2
f 157/5/2 158/5/2 159/5/2
f 159/5/2 158/5/2 160/5/2
f 161/4/2 162/4/2 163/4/2
f 163/4/2 162/4/2 164/4/2
f 165/5/2 166/5/2 167/5/2
f 167/5/2 166/5/2 168/5/2
f 169/4/2 170/4/2 173/4/2
f 173/4/2 170/4/2 174/4/2
f 171/4/2 172/4/2 175/4/2
f 175/4/2 172/4/2 176/4/2
f 177/5/2 178/5/2 179/5/2
f 179/5/2 178/5/2 180/5/2
f 181/5/2 182/5/2 183/5/2
f 183/5/2 182/5/2 184/5/2
f 185/4/2 186/4/2 187/4/2
f 187/4/2 186/4/2 188/4/2
f 189/5/2 190/5/2 192/5/2
f 192/5/2 190/5/2 193/5/2
f 191/5/2 192/5/2 195/5/2
f 193/5/2 194/5/2 195/5/2
f 192/5/2 193/5/2 195/5/2
f 195/5/2 194/5/2 196/5/2
f 196/5/2 194/5/2 197/5/2
f 197/5/2 194/5/2 198/5/2
f 196/5/2 197/5/2 200/5/2
f 200/5/2 197/5/2 201/5/2
f 199/5/2 200/5/2 203/5/2
f 201/5/2 202/5/2 203/5/2
f 200/5/2 201/5/2 203/5/2
f 203/5/2 202/5/2 204/5/2
f 204/5/2 202/5/2 205/5/2
f 205/5/2 202/5/2 206/5/2
f 204/5/2 205/5/2 207/5/2
f 207/5/2 205/5/2 208/5/2
f 211/4/3 210/4/3 209/4/3
f 212/4/3 210/4/3 211/4/3
f 219/4/3 214/4/3 213/4/3
f 220/4/3 214/4/3 219/4/3
f 223/4/3 222/4/3 221/4/3
f 224/4/3 222/4/3 223/4/3
f 225/5/3 216/5/3 215/5/3
f 226/5/3 216/5/3 225/5/3
f 227/5/3 218/5/3 217/5/3
f 228/5/3 218/5/3 227/5/3
f 236/5/3 230/5/3 229/5/3
f 237/5/3 230/5/3 236/5/3
f 238/5/3 230/5/3 237/5/3
f 239/5/3 232/5/3 231/5/3
f 240/5/3 232/5/3 239/5/3
f 241/5/3 234/5/3 233/5/3
f 242/5/3 234/5/3 241/5/3
f 243/5/3 234/5/3 242/5/3
f 246/5/3 236/5/3 235/5/3
f 246/5/3 237/5/3 236/5/3
f 247/5/3 237/5/3 246/5/3
f 248/5/3 237/5/3 247/5/3
f 249/5/3 244/5/3 243/5/3
f 249/5/3 243/5/3 242/5/3
f 250/5/3 244/5/3 249/5/3
f 251/4/3 246/4/3 245/4/3
f 252/5/3 247/5/3 246/5/3
f 252/4/3 246/4/3 251/4/3
f 253/5/3 247/5/3 252/5/3
f 256/5/3 244/5/3 250/5/3
f 257/5/3 254/5/3 253/5/3
f 257/5/3 253/5/3 252/5/3
f 258/5/3 254/5/3 257/5/3
f 259/5/3 254/5/3 258/5/3
f 264/5/3 256/5/3 255/5/3
f 265/5/3 244/5/3 256/5/3
f 265/5/3 256/5/3 264/5/3
f 266/5/3 244/5/3 265/5/3
f 267/5/3 259/5/3 258/5/3
f 267/5/3 260/5/3 259/5/3
f 268/5/3 260/5/3 267/5/3
f 269/5/3 262/5/3 261/5/3
f 270/5/3 262/5/3 269/5/3
f 271/5/3 264/5/3 263/5/3
f 271/5/3 265/5/3 264/5/3
f 272/5/3 265/5/3 271/5/3
f 277/3/3 274/3/3 273/3/3
f 278/3/3 274/3/3 277/3/3
f 279/5/3 276/5/3 275/5/3
f 280/5/3 276/5/3 279/5/3
f 283/5/3 282/5/3 281/5/3
f 284/5/3 282/5/3 283/5/3
f 285/5/3 282/5/3 284/5/3
f 286/5/3 282/5/3 285/5/3
f 291/5/3 284/5/3 283/5/3
f 292/5/3 284/5/3 291/5/3
f 293/5/3 287/5/3 286/5/3
f 293/5/3 286/5/3 285/5/3
f 294/5/3 287/5/3 293/5/3
f 295/2/3 290/2/3 289/2/3
f 295/1/3 289/1/3 288/1/3
f 296/2/3 290/2/3 295/2/3
f 297/2/3 290/2/3 296/2/3
f 298/2/3 290/2/3 297/2/3
f 299/1/3 295/1/3 288/1/3
f 299/1/3 296/1/3 295/1/3
f 300/2/3 297/2/3 296/2/3
f 300/1/3 296/1/3 299/1/3
f 301/2/3 297/2/3 300/2/3
f 305/5/3 287/5/3 294/5/3
f 306/5/3 303/5/3 302/5/3
f 307/5/3 303/5/3 306/5/3
f 308/5/3 305/5/3 304/5/3
f 309/5/3 287/5/3 305/5/3
f 309/5/3 305/5/3 308/5/3
f 310/5/3 287/5/3 309/5/3
f 311/5/3 307/5/3 306/5/3
f 311/5/3 308/5/3 307/5/3
f 311/5/3 309/5/3 308/5/3
f 312/5/3 309/5/3 311/5/3
f 317/5/3 314/5/3 313/5/3
f 318/5/3 314/5/3 317/5/3
f 319/5/3 316/5/3 315/5/3
f 320/5/3 316/5/3 319/5/3
f 321/5/4 322/5/4 325/5/4
f 325/5/4 322/5/4 326/5/4
f 323/5/4 324/5/4 327/5/4
f 327/5/4 324/5/4 328/5/4
f 329/2/4 330/2/4 331/2/4
f 331/2/4 330/2/4 332/2/4
f 333/5/4 334/5/4 335/5/4
f 335/5/4 334/5/4 336/5/4
f 336/5/4 334/5/4 337/5/4
f 337/5/4 334/5/4 338/5/4
f 335/5/4 336/5/4 343/5/4
f 343/5/4 336/5/4 344/5/4
f 338/5/4 339/5/4 345/5/4
f 337/5/4 338/5/4 345/5/4
f 345/5/4 339/5/4 346/5/4
f 340/1/4 341/1/4 347/1/4
f 341/2/4 342/2/4 348/2/4
f 347/1/4 341/1/4 348/1/4
f 348/2/4 342/2/4 349/2/4
f 346/5/4 339/5/4 353/5/4
f 350/5/4 351/5/4 354/5/4
f 354/5/4 351/5/4 355/5/4
f 352/5/4 353/5/4 356/5/4
f 353/5/4 339/5/4 357/5/4
f 356/5/4 353/5/4 357/5/4
f 357/5/4 339/5/4 358/5/4
f 354/5/4 355/5/4 359/5/4
f 355/5/4 356/5/4 359/5/4
f 356/5/4 357/5/4 359/5/4
f 359/5/4 357/5/4 360/5/4
f 361/3/4 362/3/4 365/3/4
f 365/3/4 362/3/4 366/3/4
f 363/5/4 364/5/4 367/5/4
f 367/5/4 364/5/4 368/5/4
f 369/5/4 370/5/4 376/5/4
f 376/5/4 370/5/4 377/5/4
f 377/5/4 370/5/4 378/5/4
f 371/5/4 372/5/4 379/5/4
f 379/5/4 372/5/4 380/5/4
f 373/5/4 374/5/4 381/5/4
f 381/5/4 374/5/4 382/5/4
f 382/5/4 374/5/4 383/5/4
f 375/5/4 376/5/4 386/5/4
f 376/5/4 377/5/4 386/5/4
f 386/5/4 377/5/4 387/5/4
f 387/5/4 377/5/4 388/5/4
f 383/5/4 384/5/4 389/5/4
f 382/5/4 383/5/4 389/5/4
f 389/5/4 384/5/4 390/5/4
f 385/4/4 386/4/4 391/4/4
f 386/5/4 387/5/4 392/5/4
f 391/4/4 386/4/4 392/4/4
f 392/5/4 387/5/4 393/5/4
f 390/5/4 384/5/4 396/5/4
f 393/5/4 394/5/4 397/5/4
f 392/5/4 393/5/4 397/5/4
f 397/5/4 394/5/4 398/5/4
f 398/5/4 394/5/4 399/5/4
f 395/5/4 396/5/4 404/5/4
f 396/5/4 384/5/4 405/5/4
f 404/5/4 396/5/4 405/5/4
f 405/5/4 384/5/4 406/5/4
f 398/5/4 399/5/4 407/5/4
f 399/5/4 400/5/4 407/5/4
f 407/5/4 400/5/4 408/5/4
f 401/5/4 402/5/4 409/5/4
f 409/5/4 402/5/4 410/5/4
f 403/5/4 404/5/4 411/5/4
f 404/5/4 405/5/4 411/5/4
f 411/5/4 405/5/4 412/5/4
f 413/4/4 414/4/4 419/4/4
f 419/4/4 414/4/4 420/4/4
f 421/4/4 422/4/4 423/4/4
f 423/4/4 422/4/4 424/4/4
f 415/5/4 416/5/4 425/5/4
f 425/5/4 416/5/4 426/5/4
f 417/5/4 418/5/4 427/5/4
f 427/5/4 418/5/4 428/5/4
f 429/4/4 430/4/4 431/4/4
f 431/4/4 430/4/4 432/4/4
f 436/4/5 434/4/5 433/4/5
f 437/4/5 434/4/5 436/4/5
f 439/4/5 436/4/5 435/4/5
f 439/4/5 438/4/5 437/4/5
f 439/4/5 437/4/5 436/4/5
f 440/4/5 438/4/5 439/4/5
f 441/4/5 438/4/5 440/4/5
f 442/4/5 438/4/5 441/4/5
f 443/4/5 441/4/5 440/4/5
f 444/4/5 441/4/5 443/4/5
f 449/5/5 446/5/5 445/5/5
f 450/5/5 446/5/5 449/5/5
f 451/5/5 448/5/5 447/5/5
f 452/5/5 448/5/5 451/5/5
f 457/5/5 454/5/5 453/5/5
f 458/5/5 454/5/5 457/5/5
f 459/5/5 456/5/5 455/5/5
f 460/5/5 456/5/5 459/5/5
f 463/5/5 462/5/5 461/5/5
f 464/5/5 462/5/5 463/5/5
f 465/5/5 462/5/5 464/5/5
f 466/5/5 462/5/5 465/5/5
f 471/5/5 468/5/5 467/5/5
f 471/5/5 470/5/5 469/5/5
f 471/5/5 469/5/5 468/5/5
f 472/5/5 470/5/5 471/5/5
f 475/5/5 474/5/5 473/5/5
f 476/5/5 474/5/5 475/5/5
f 477/5/5 474/5/5 476/5/5
f 478/5/5 474/5/5 477/5/5
f 483/5/5 480/5/5 479/5/5
f 483/5/5 482/5/5 481/5/5
f 483/5/5 481/5/5 480/5/5
f 484/5/5 482/5/5 483/5/5
f 489/5/5 486/5/5 485/5/5
f 490/5/5 486/5/5 489/5/5
f 491/5/5 488/5/5 487/5/5
f 492/5/5 488/5/5 491/5/5
f 495/5/5 494/5/5 493/5/5
f 496/5/5 494/5/5 495/5/5
f 501/5/5 498/5/5 497/5/5
f 502/5/5 498/5/5 501/5/5
f 503/5/5 500/5/5 499/5/5
f 504/5/5 500/5/5 503/5/5
f 509/5/5 506/5/5 505/5/5
f 510/5/5 506/5/5 509/5/5
f 511/5/5 508/5/5 507/5/5
f 512/5/5 508/5/5 511/5/5
f 515/5/5 514/5/5 513/5/5
f 516/5/5 514/5/5 515/5/5
f 517/4/6 518/4/6 520/4/6
f 520/4/6 518/4/6 521/4/6
f 519/4/6 520/4/6 523/4/6
f 521/4/6 522/4/6 523/4/6
f 520/4/6 521/4/6 523/4/6
f 523/4/6 522/4/6 524/4/6
f 519/4/6 523/4/6 525/4/6
f 524/4/6 522/4/6 526/4/6
f 519/4/6 525/4/6 527/4/6
f 525/4/6 526/4/6 527/4/6
f 527/4/6 526/4/6 528/4/6
f 526/4/6 522/4/6 529/4/6
f 528/4/6 526/4/6 529/4/6
f 529/4/6 522/4/6 530/4/6
f 528/4/6 529/4/6 531/4/6
f 531/4/6 529/4/6 532/4/6
f 533/5/6 534/5/6 535/5/6
f 535/5/6 534/5/6 536/5/6
f 533/5/6 535/5/6 537/5/6
f 536/5/6 534/5/6 538/5/6
f 533/5/6 537/5/6 539/5/6
f 537/5/6 538/5/6 539/5/6
f 538/5/6 534/5/6 540/5/6
f 539/5/6 538/5/6 540/5/6
f 545/3/6 546/3/6 547/3/6
f 547/3/6 546/3/6 548/3/6
f 545/3/6 547/3/6 549/3/6
f 548/3/6 546/3/6 550/3/6
f 545/3/6 549/3/6 551/3/6
f 549/3/6 550/3/6 551/3/6
f 550/3/6 546/3/6 552/3/6
f 551/3/6 550/3/6 552/3/6
f 541/5/6 542/5/6 553/5/6
f 553/5/6 542/5/6 554/5/6
f 543/5/6 544/5/6 555/5/6
f 555/5/6 544/5/6 556/5/6
f 557/5/6 558/5/6 559/5/6
f 559/5/6 558/5/6 560/5/6
f 560/5/6 558/5/6 561/5/6
f 561/5/6 558/5/6 562/5/6
f 563/2/6 564/2/6 566/2/6
f 565/2/6 566/2/6 567/2/6
f 566/2/6 564/2/6 568/2/6
f 567/2/6 566/2/6 568/2/6
f 569/5/6 570/5/6 573/5/6
f 571/5/6 572/5/6 573/5/6
f 570/5/6 571/5/6 573/5/6
f 573/5/6 572/5/6 574/5/6
f 575/2/6 576/2/6 577/2/6
f 577/2/6 576/2/6 578/2/6
f 579/5/6 580/5/6 581/5/6
f 581/5/6 580/5/6 582/5/6
f 582/5/6 580/5/6 583/5/6
f 583/5/6 580/5/6 584/5/6
f 585/5/6 586/5/6 589/5/6
f 587/5/6 588/5/6 589/5/6
f 586/5/6 587/5/6 589/5/6
f 589/5/6 588/5/6 590/5/6
f 591/5/6 592/5/6 595/5/6
f 595/5/6 592/5/6 596/5/6
f 593/5/6 594/5/6 597/5/6
f 597/5/6 594/5/6 598/5/6
f 599/5/6 600/5/6 601/5/6
f 601/5/6 600/5/6 602/5/6
f 599/5/6 601/5/6 603/5/6
f 602/5/6 600/5/6 604/5/6
f 599/5/6 603/5/6 605/5/6
f 603/5/6 604/5/6 605/5/6
f 604/5/6 600/5/6 606/5/6
f 605/5/6 604/5/6 606/5/6
f 607/5/6 608/5/6 609/5/6
f 609/5/6 608/5/6 610/5/6
f 610/5/6 608/5/6 611/5/6
f 611/5/6 608/5/6 612/5/6
f 610/5/6 611/5/6 614/5/6
f 614/5/6 611/5/6 615/5/6
f 613/5/6 614/5/6 617/5/6
f 615/5/6 616/5/6 617/5/6
f 614/5/6 615/5/6 617/5/6
f 617/5/6 616/5/6 618/5/6
f 619/5/6 620/5/6 623/5/6
f 623/5/6 620/5/6 624/5/6
f 621/5/6 622/5/6 625/5/6
f 625/5/6 622/5/6 626/5/6
f 627/5/6 628/5/6 631/5/6
f 631/5/6 628/5/6 632/5/6
f 629/5/6 630/5/6 633/5/6
f 633/5/6 630/5/6 634/5/6
f 635/5/6 636/5/6 637/5/6
f 637/5/6 636/5/6 638/5/6
