# MagicaVoxel @ Ephtracy

# group
o 

# material
mtllib Piano.mtl
usemtl palette

# normals
vn -1 0 0
vn 1 0 0
vn 0 0 1
vn 0 0 -1
vn 0 -1 0
vn 0 1 0

# texcoords
vt 0.869141 0.5
vt 0.958984 0.5
vt 0.994141 0.5

# verts
v -2 0 1.1
v -2 0 -1.3
v -2 0.2 1.1
v -2 0.2 0.2
v -2 1 1.1
v -2 1 0.2
v -2 1.8 1.1
v -2 1.8 1
v -2 1.9 1
v -2 1.9 0.2
v -2 2.9 0.3
v -2 2.9 0.2
v -2 3 0.4
v -2 3 0.3
v -2 3.1 0.4
v -2 3.1 -1.3
v -1.9 0.2 1
v -1.9 0.2 0.8
v -1.9 1 1
v -1.9 1 0.8
v -1.5 1.6 0.7
v -1.5 1.6 0.2
v -1.5 1.7 0.7
v -1.5 1.7 0.2
v -1.3 1.6 0.7
v -1.3 1.6 0.2
v -1.3 1.7 0.7
v -1.3 1.7 0.2
v -1 1.6 0.7
v -1 1.6 0.2
v -1 1.7 0.7
v -1 1.7 0.2
v -0.9 0.7 2
v -0.9 0.7 1.3
v -0.9 0.8 2
v -0.9 0.8 1.3
v -0.8 0 1.9
v -0.8 0 1.8
v -0.8 0 1.5
v -0.8 0 1.4
v -0.8 0.7 1.9
v -0.8 0.7 1.8
v -0.8 0.7 1.5
v -0.8 0.7 1.4
v -0.8 1.6 0.7
v -0.8 1.6 0.2
v -0.8 1.7 0.7
v -0.8 1.7 0.2
v -0.6 1.6 0.7
v -0.6 1.6 0.2
v -0.6 1.7 0.7
v -0.6 1.7 0.2
v -0.4 1.6 0.7
v -0.4 1.6 0.2
v -0.4 1.7 0.7
v -0.4 1.7 0.2
v -0.2 1.6 0.7
v -0.2 1.6 0.2
v -0.2 1.7 0.7
v -0.2 1.7 0.2
v 0.1 1.6 0.7
v 0.1 1.6 0.2
v 0.1 1.7 0.7
v 0.1 1.7 0.2
v 0.3 1.6 0.7
v 0.3 1.6 0.2
v 0.3 1.7 0.7
v 0.3 1.7 0.2
v 0.5 1.6 0.7
v 0.5 1.6 0.2
v 0.5 1.7 0.7
v 0.5 1.7 0.2
v 0.7 0 1.9
v 0.7 0 1.8
v 0.7 0 1.5
v 0.7 0 1.4
v 0.7 0.7 1.9
v 0.7 0.7 1.8
v 0.7 0.7 1.5
v 0.7 0.7 1.4
v 0.7 1.6 0.7
v 0.7 1.6 0.2
v 0.7 1.7 0.7
v 0.7 1.7 0.2
v 0.9 1.6 0.7
v 0.9 1.6 0.2
v 0.9 1.7 0.7
v 0.9 1.7 0.2
v 1.2 1.6 0.7
v 1.2 1.6 0.2
v 1.2 1.7 0.7
v 1.2 1.7 0.2
v 1.4 1.6 0.7
v 1.4 1.6 0.2
v 1.4 1.7 0.7
v 1.4 1.7 0.2
v 1.5 2 0.2
v 1.5 2 0.0999999
v 1.5 2.1 0.2
v 1.5 2.1 0.0999999
v 1.5 2.6 0.2
v 1.5 2.6 0.0999999
v 1.5 2.7 0.2
v 1.5 2.7 0.0999999
v 1.6 0 1.1
v 1.6 0 0.2
v 1.6 0.2 1.1
v 1.6 0.2 0.2
v 1.6 1 1.1
v 1.6 1 0.9
v 1.6 1.5 0.9
v 1.6 1.6 0.9
v 1.6 1.6 0.2
v 1.6 1.8 1.1
v 1.6 1.8 1
v 1.6 1.9 1
v 1.6 1.9 0.2
v 1.6 2.1 0.2
v 1.6 2.1 0.0999999
v 1.6 2.6 0.2
v 1.6 2.6 0.0999999
v 1.7 0.2 1
v 1.7 0.2 0.8
v 1.7 1 1
v 1.7 1 0.8
v -1.7 0.2 1
v -1.7 0.2 0.8
v -1.7 1 1
v -1.7 1 0.8
v -1.6 0 1.1
v -1.6 0 0.2
v -1.6 0.2 1.1
v -1.6 0.2 0.2
v -1.6 1 1.1
v -1.6 1 0.9
v -1.6 1.5 0.9
v -1.6 1.6 0.9
v -1.6 1.6 0.2
v -1.6 1.8 1.1
v -1.6 1.8 1
v -1.6 1.9 1
v -1.6 1.9 0.2
v -1.6 2.1 0.2
v -1.6 2.1 0.0999999
v -1.6 2.6 0.2
v -1.6 2.6 0.0999999
v -1.5 2 0.2
v -1.5 2 0.0999999
v -1.5 2.1 0.2
v -1.5 2.1 0.0999999
v -1.5 2.6 0.2
v -1.5 2.6 0.0999999
v -1.5 2.7 0.2
v -1.5 2.7 0.0999999
v -1.4 1.6 0.7
v -1.4 1.6 0.2
v -1.4 1.7 0.7
v -1.4 1.7 0.2
v -1.2 1.6 0.7
v -1.2 1.6 0.2
v -1.2 1.7 0.7
v -1.2 1.7 0.2
v -0.9 1.6 0.7
v -0.9 1.6 0.2
v -0.9 1.7 0.7
v -0.9 1.7 0.2
v -0.7 0 1.9
v -0.7 0 1.8
v -0.7 0 1.5
v -0.7 0 1.4
v -0.7 0.7 1.9
v -0.7 0.7 1.8
v -0.7 0.7 1.5
v -0.7 0.7 1.4
v -0.7 1.6 0.7
v -0.7 1.6 0.2
v -0.7 1.7 0.7
v -0.7 1.7 0.2
v -0.5 1.6 0.7
v -0.5 1.6 0.2
v -0.5 1.7 0.7
v -0.5 1.7 0.2
v -0.3 1.6 0.7
v -0.3 1.6 0.2
v -0.3 1.7 0.7
v -0.3 1.7 0.2
v -0.0999999 1.6 0.7
v -0.0999999 1.6 0.2
v -0.0999999 1.7 0.7
v -0.0999999 1.7 0.2
v 0.2 1.6 0.7
v 0.2 1.6 0.2
v 0.2 1.7 0.7
v 0.2 1.7 0.2
v 0.4 1.6 0.7
v 0.4 1.6 0.2
v 0.4 1.7 0.7
v 0.4 1.7 0.2
v 0.6 1.6 0.7
v 0.6 1.6 0.2
v 0.6 1.7 0.7
v 0.6 1.7 0.2
v 0.8 0 1.9
v 0.8 0 1.8
v 0.8 0 1.5
v 0.8 0 1.4
v 0.8 0.7 1.9
v 0.8 0.7 1.8
v 0.8 0.7 1.5
v 0.8 0.7 1.4
v 0.8 1.6 0.7
v 0.8 1.6 0.2
v 0.8 1.7 0.7
v 0.8 1.7 0.2
v 0.9 0.7 2
v 0.9 0.7 1.3
v 0.9 0.8 2
v 0.9 0.8 1.3
v 1 1.6 0.7
v 1 1.6 0.2
v 1 1.7 0.7
v 1 1.7 0.2
v 1.3 1.6 0.7
v 1.3 1.6 0.2
v 1.3 1.7 0.7
v 1.3 1.7 0.2
v 1.5 1.6 0.7
v 1.5 1.6 0.2
v 1.5 1.7 0.7
v 1.5 1.7 0.2
v 1.9 0.2 1
v 1.9 0.2 0.8
v 1.9 1 1
v 1.9 1 0.8
v 2 0 1.1
v 2 0 -1.3
v 2 0.2 1.1
v 2 0.2 0.2
v 2 1 1.1
v 2 1 0.2
v 2 1.8 1.1
v 2 1.8 1
v 2 1.9 1
v 2 1.9 0.2
v 2 2.9 0.3
v 2 2.9 0.2
v 2 3 0.4
v 2 3 0.3
v 2 3.1 0.4
v 2 3.1 -1.3
v -0.9 0.7 2
v -0.9 0.8 2
v 0.9 0.7 2
v 0.9 0.8 2
v -0.8 0 1.9
v -0.8 0.7 1.9
v -0.7 0 1.9
v -0.7 0.7 1.9
v 0.7 0 1.9
v 0.7 0.7 1.9
v 0.8 0 1.9
v 0.8 0.7 1.9
v -0.8 0 1.5
v -0.8 0.7 1.5
v -0.7 0 1.5
v -0.7 0.7 1.5
v 0.7 0 1.5
v 0.7 0.7 1.5
v 0.8 0 1.5
v 0.8 0.7 1.5
v -2 0 1.1
v -2 0.2 1.1
v -2 1 1.1
v -2 1.8 1.1
v -1.6 0 1.1
v -1.6 0.2 1.1
v -1.6 1 1.1
v -1.6 1.8 1.1
v 1.6 0 1.1
v 1.6 0.2 1.1
v 1.6 1 1.1
v 1.6 1.8 1.1
v 2 0 1.1
v 2 0.2 1.1
v 2 1 1.1
v 2 1.8 1.1
v -2 1.8 1
v -2 1.9 1
v -1.9 0.2 1
v -1.9 1 1
v -1.7 0.2 1
v -1.7 1 1
v -1.6 1.8 1
v -1.6 1.9 1
v 1.6 1.8 1
v 1.6 1.9 1
v 1.7 0.2 1
v 1.7 1 1
v 1.9 0.2 1
v 1.9 1 1
v 2 1.8 1
v 2 1.9 1
v -1.6 1 0.9
v -1.6 1.5 0.9
v -1.6 1.6 0.9
v 1.6 1 0.9
v 1.6 1.5 0.9
v 1.6 1.6 0.9
v -1.5 1.6 0.7
v -1.5 1.7 0.7
v -1.4 1.6 0.7
v -1.4 1.7 0.7
v -1.3 1.6 0.7
v -1.3 1.7 0.7
v -1.2 1.6 0.7
v -1.2 1.7 0.7
v -1 1.6 0.7
v -1 1.7 0.7
v -0.9 1.6 0.7
v -0.9 1.7 0.7
v -0.8 1.6 0.7
v -0.8 1.7 0.7
v -0.7 1.6 0.7
v -0.7 1.7 0.7
v -0.6 1.6 0.7
v -0.6 1.7 0.7
v -0.5 1.6 0.7
v -0.5 1.7 0.7
v -0.4 1.6 0.7
v -0.4 1.7 0.7
v -0.3 1.6 0.7
v -0.3 1.7 0.7
v -0.2 1.6 0.7
v -0.2 1.7 0.7
v -0.0999999 1.6 0.7
v -0.0999999 1.7 0.7
v 0.1 1.6 0.7
v 0.1 1.7 0.7
v 0.2 1.6 0.7
v 0.2 1.7 0.7
v 0.3 1.6 0.7
v 0.3 1.7 0.7
v 0.4 1.6 0.7
v 0.4 1.7 0.7
v 0.5 1.6 0.7
v 0.5 1.7 0.7
v 0.6 1.6 0.7
v 0.6 1.7 0.7
v 0.7 1.6 0.7
v 0.7 1.7 0.7
v 0.8 1.6 0.7
v 0.8 1.7 0.7
v 0.9 1.6 0.7
v 0.9 1.7 0.7
v 1 1.6 0.7
v 1 1.7 0.7
v 1.2 1.6 0.7
v 1.2 1.7 0.7
v 1.3 1.6 0.7
v 1.3 1.7 0.7
v 1.4 1.6 0.7
v 1.4 1.7 0.7
v 1.5 1.6 0.7
v 1.5 1.7 0.7
v -2 3 0.4
v -2 3.1 0.4
v 2 3 0.4
v 2 3.1 0.4
v -2 2.9 0.3
v -2 3 0.3
v 2 2.9 0.3
v 2 3 0.3
v -2 0.2 0.2
v -2 1 0.2
v -2 1.9 0.2
v -2 2.9 0.2
v -1.6 0 0.2
v -1.6 0.2 0.2
v -1.6 1.6 0.2
v -1.6 1.9 0.2
v -1.6 2.1 0.2
v -1.6 2.6 0.2
v -1.5 1.6 0.2
v -1.5 1.7 0.2
v -1.5 2 0.2
v -1.5 2.1 0.2
v -1.5 2.6 0.2
v -1.5 2.7 0.2
v -1.4 1.6 0.2
v -1.4 1.7 0.2
v -1.3 1.6 0.2
v -1.3 1.7 0.2
v -1.2 1.6 0.2
v -1.2 1.7 0.2
v -1 1.6 0.2
v -1 1.7 0.2
v -0.9 1.6 0.2
v -0.9 1.7 0.2
v -0.8 1.6 0.2
v -0.8 1.7 0.2
v -0.7 1.6 0.2
v -0.7 1.7 0.2
v -0.6 1.6 0.2
v -0.6 1.7 0.2
v -0.5 1.6 0.2
v -0.5 1.7 0.2
v -0.4 1.6 0.2
v -0.4 1.7 0.2
v -0.3 1.6 0.2
v -0.3 1.7 0.2
v -0.2 1.6 0.2
v -0.2 1.7 0.2
v -0.0999999 1.6 0.2
v -0.0999999 1.7 0.2
v 0.1 1.6 0.2
v 0.1 1.7 0.2
v 0.2 1.6 0.2
v 0.2 1.7 0.2
v 0.3 1.6 0.2
v 0.3 1.7 0.2
v 0.4 1.6 0.2
v 0.4 1.7 0.2
v 0.5 1.6 0.2
v 0.5 1.7 0.2
v 0.6 1.6 0.2
v 0.6 1.7 0.2
v 0.7 1.6 0.2
v 0.7 1.7 0.2
v 0.8 1.6 0.2
v 0.8 1.7 0.2
v 0.9 1.6 0.2
v 0.9 1.7 0.2
v 1 1.6 0.2
v 1 1.7 0.2
v 1.2 1.6 0.2
v 1.2 1.7 0.2
v 1.3 1.6 0.2
v 1.3 1.7 0.2
v 1.4 1.6 0.2
v 1.4 1.7 0.2
v 1.5 1.6 0.2
v 1.5 1.7 0.2
v 1.5 2 0.2
v 1.5 2.1 0.2
v 1.5 2.6 0.2
v 1.5 2.7 0.2
v 1.6 0 0.2
v 1.6 0.2 0.2
v 1.6 1.6 0.2
v 1.6 1.9 0.2
v 1.6 2.1 0.2
v 1.6 2.6 0.2
v 2 0.2 0.2
v 2 1 0.2
v 2 1.9 0.2
v 2 2.9 0.2
v -1.6 2.1 0.0999999
v -1.6 2.6 0.0999999
v -1.5 2 0.0999999
v -1.5 2.1 0.0999999
v -1.5 2.6 0.0999999
v -1.5 2.7 0.0999999
v 1.5 2 0.0999999
v 1.5 2.1 0.0999999
v 1.5 2.6 0.0999999
v 1.5 2.7 0.0999999
v 1.6 2.1 0.0999999
v 1.6 2.6 0.0999999
v -0.8 0 1.8
v -0.8 0.7 1.8
v -0.7 0 1.8
v -0.7 0.7 1.8
v 0.7 0 1.8
v 0.7 0.7 1.8
v 0.8 0 1.8
v 0.8 0.7 1.8
v -0.8 0 1.4
v -0.8 0.7 1.4
v -0.7 0 1.4
v -0.7 0.7 1.4
v 0.7 0 1.4
v 0.7 0.7 1.4
v 0.8 0 1.4
v 0.8 0.7 1.4
v -0.9 0.7 1.3
v -0.9 0.8 1.3
v 0.9 0.7 1.3
v 0.9 0.8 1.3
v -1.9 0.2 0.8
v -1.9 1 0.8
v -1.7 0.2 0.8
v -1.7 1 0.8
v 1.7 0.2 0.8
v 1.7 1 0.8
v 1.9 0.2 0.8
v 1.9 1 0.8
v -2 0 -1.3
v -2 3.1 -1.3
v 2 0 -1.3
v 2 3.1 -1.3
v -0.8 0 1.9
v -0.7 0 1.9
v 0.7 0 1.9
v 0.8 0 1.9
v -0.8 0 1.8
v -0.7 0 1.8
v 0.7 0 1.8
v 0.8 0 1.8
v -0.8 0 1.5
v -0.7 0 1.5
v 0.7 0 1.5
v 0.8 0 1.5
v -0.8 0 1.4
v -0.7 0 1.4
v 0.7 0 1.4
v 0.8 0 1.4
v -2 0 1.1
v -1.6 0 1.1
v 1.6 0 1.1
v 2 0 1.1
v -1.6 0 0.2
v 1.6 0 0.2
v -2 0 -1.3
v 2 0 -1.3
v -0.9 0.7 2
v 0.9 0.7 2
v -0.8 0.7 1.9
v -0.7 0.7 1.9
v 0.7 0.7 1.9
v 0.8 0.7 1.9
v -0.8 0.7 1.8
v -0.7 0.7 1.8
v 0.7 0.7 1.8
v 0.8 0.7 1.8
v -0.8 0.7 1.5
v -0.7 0.7 1.5
v 0.7 0.7 1.5
v 0.8 0.7 1.5
v -0.8 0.7 1.4
v -0.7 0.7 1.4
v 0.7 0.7 1.4
v 0.8 0.7 1.4
v -0.9 0.7 1.3
v 0.9 0.7 1.3
v -2 1 1.1
v -1.6 1 1.1
v 1.6 1 1.1
v 2 1 1.1
v -1.9 1 1
v -1.7 1 1
v 1.7 1 1
v 1.9 1 1
v -1.6 1 0.9
v 1.6 1 0.9
v -1.9 1 0.8
v -1.7 1 0.8
v 1.7 1 0.8
v 1.9 1 0.8
v -2 1 0.2
v 2 1 0.2
v -1.6 2.6 0.2
v -1.5 2.6 0.2
v 1.5 2.6 0.2
v 1.6 2.6 0.2
v -1.6 2.6 0.0999999
v -1.5 2.6 0.0999999
v 1.5 2.6 0.0999999
v 1.6 2.6 0.0999999
v -1.5 2.7 0.2
v 1.5 2.7 0.2
v -1.5 2.7 0.0999999
v 1.5 2.7 0.0999999
v -2 2.9 0.3
v 2 2.9 0.3
v -2 2.9 0.2
v 2 2.9 0.2
v -2 3 0.4
v 2 3 0.4
v -2 3 0.3
v 2 3 0.3
v -2 0.2 1.1
v -1.6 0.2 1.1
v 1.6 0.2 1.1
v 2 0.2 1.1
v -1.9 0.2 1
v -1.7 0.2 1
v 1.7 0.2 1
v 1.9 0.2 1
v -1.9 0.2 0.8
v -1.7 0.2 0.8
v 1.7 0.2 0.8
v 1.9 0.2 0.8
v -2 0.2 0.2
v -1.6 0.2 0.2
v 1.6 0.2 0.2
v 2 0.2 0.2
v -0.9 0.8 2
v 0.9 0.8 2
v -0.9 0.8 1.3
v 0.9 0.8 1.3
v -1.6 1.6 0.9
v 1.6 1.6 0.9
v -1.5 1.6 0.7
v -1.4 1.6 0.7
v -1.3 1.6 0.7
v -1.2 1.6 0.7
v -1 1.6 0.7
v -0.9 1.6 0.7
v -0.8 1.6 0.7
v -0.7 1.6 0.7
v -0.6 1.6 0.7
v -0.5 1.6 0.7
v -0.4 1.6 0.7
v -0.3 1.6 0.7
v -0.2 1.6 0.7
v -0.0999999 1.6 0.7
v 0.1 1.6 0.7
v 0.2 1.6 0.7
v 0.3 1.6 0.7
v 0.4 1.6 0.7
v 0.5 1.6 0.7
v 0.6 1.6 0.7
v 0.7 1.6 0.7
v 0.8 1.6 0.7
v 0.9 1.6 0.7
v 1 1.6 0.7
v 1.2 1.6 0.7
v 1.3 1.6 0.7
v 1.4 1.6 0.7
v 1.5 1.6 0.7
v -1.6 1.6 0.2
v -1.5 1.6 0.2
v -1.4 1.6 0.2
v -1.3 1.6 0.2
v -1.2 1.6 0.2
v -1 1.6 0.2
v -0.9 1.6 0.2
v -0.8 1.6 0.2
v -0.7 1.6 0.2
v -0.6 1.6 0.2
v -0.5 1.6 0.2
v -0.4 1.6 0.2
v -0.3 1.6 0.2
v -0.2 1.6 0.2
v -0.0999999 1.6 0.2
v 0.1 1.6 0.2
v 0.2 1.6 0.2
v 0.3 1.6 0.2
v 0.4 1.6 0.2
v 0.5 1.6 0.2
v 0.6 1.6 0.2
v 0.7 1.6 0.2
v 0.8 1.6 0.2
v 0.9 1.6 0.2
v 1 1.6 0.2
v 1.2 1.6 0.2
v 1.3 1.6 0.2
v 1.4 1.6 0.2
v 1.5 1.6 0.2
v 1.6 1.6 0.2
v -1.5 1.7 0.7
v -1.4 1.7 0.7
v -1.3 1.7 0.7
v -1.2 1.7 0.7
v -1 1.7 0.7
v -0.9 1.7 0.7
v -0.8 1.7 0.7
v -0.7 1.7 0.7
v -0.6 1.7 0.7
v -0.5 1.7 0.7
v -0.4 1.7 0.7
v -0.3 1.7 0.7
v -0.2 1.7 0.7
v -0.0999999 1.7 0.7
v 0.1 1.7 0.7
v 0.2 1.7 0.7
v 0.3 1.7 0.7
v 0.4 1.7 0.7
v 0.5 1.7 0.7
v 0.6 1.7 0.7
v 0.7 1.7 0.7
v 0.8 1.7 0.7
v 0.9 1.7 0.7
v 1 1.7 0.7
v 1.2 1.7 0.7
v 1.3 1.7 0.7
v 1.4 1.7 0.7
v 1.5 1.7 0.7
v -1.5 1.7 0.2
v -1.4 1.7 0.2
v -1.3 1.7 0.2
v -1.2 1.7 0.2
v -1 1.7 0.2
v -0.9 1.7 0.2
v -0.8 1.7 0.2
v -0.7 1.7 0.2
v -0.6 1.7 0.2
v -0.5 1.7 0.2
v -0.4 1.7 0.2
v -0.3 1.7 0.2
v -0.2 1.7 0.2
v -0.0999999 1.7 0.2
v 0.1 1.7 0.2
v 0.2 1.7 0.2
v 0.3 1.7 0.2
v 0.4 1.7 0.2
v 0.5 1.7 0.2
v 0.6 1.7 0.2
v 0.7 1.7 0.2
v 0.8 1.7 0.2
v 0.9 1.7 0.2
v 1 1.7 0.2
v 1.2 1.7 0.2
v 1.3 1.7 0.2
v 1.4 1.7 0.2
v 1.5 1.7 0.2
v -2 1.8 1.1
v -1.6 1.8 1.1
v 1.6 1.8 1.1
v 2 1.8 1.1
v -2 1.8 1
v -1.6 1.8 1
v 1.6 1.8 1
v 2 1.8 1
v -2 1.9 1
v -1.6 1.9 1
v 1.6 1.9 1
v 2 1.9 1
v -2 1.9 0.2
v -1.6 1.9 0.2
v 1.6 1.9 0.2
v 2 1.9 0.2
v -1.5 2 0.2
v 1.5 2 0.2
v -1.5 2 0.0999999
v 1.5 2 0.0999999
v -1.6 2.1 0.2
v -1.5 2.1 0.2
v 1.5 2.1 0.2
v 1.6 2.1 0.2
v -1.6 2.1 0.0999999
v -1.5 2.1 0.0999999
v 1.5 2.1 0.0999999
v 1.6 2.1 0.0999999
v -2 3.1 0.4
v 2 3.1 0.4
v -2 3.1 -1.3
v 2 3.1 -1.3

# faces
f 3/1/1 2/1/1 1/1/1
f 4/1/1 2/1/1 3/1/1
f 6/1/1 2/1/1 4/1/1
f 7/1/1 6/1/1 5/1/1
f 8/1/1 6/1/1 7/1/1
f 9/1/1 6/1/1 8/1/1
f 10/1/1 2/1/1 6/1/1
f 10/1/1 6/1/1 9/1/1
f 12/1/1 2/1/1 10/1/1
f 14/1/1 12/1/1 11/1/1
f 15/1/1 14/1/1 13/1/1
f 16/1/1 2/1/1 12/1/1
f 16/1/1 14/1/1 15/1/1
f 16/1/1 12/1/1 14/1/1
f 19/1/1 18/1/1 17/1/1
f 20/1/1 18/1/1 19/1/1
f 23/3/1 22/3/1 21/3/1
f 24/3/1 22/3/1 23/3/1
f 27/3/1 26/3/1 25/3/1
f 28/3/1 26/3/1 27/3/1
f 31/3/1 30/3/1 29/3/1
f 32/3/1 30/3/1 31/3/1
f 35/1/1 34/1/1 33/1/1
f 36/1/1 34/1/1 35/1/1
f 41/1/1 38/1/1 37/1/1
f 42/1/1 38/1/1 41/1/1
f 43/1/1 40/1/1 39/1/1
f 44/1/1 40/1/1 43/1/1
f 47/3/1 46/3/1 45/3/1
f 48/3/1 46/3/1 47/3/1
f 51/3/1 50/3/1 49/3/1
f 52/3/1 50/3/1 51/3/1
f 55/3/1 54/3/1 53/3/1
f 56/3/1 54/3/1 55/3/1
f 59/3/1 58/3/1 57/3/1
f 60/3/1 58/3/1 59/3/1
f 63/3/1 62/3/1 61/3/1
f 64/3/1 62/3/1 63/3/1
f 67/3/1 66/3/1 65/3/1
f 68/3/1 66/3/1 67/3/1
f 71/3/1 70/3/1 69/3/1
f 72/3/1 70/3/1 71/3/1
f 77/1/1 74/1/1 73/1/1
f 78/1/1 74/1/1 77/1/1
f 79/1/1 76/1/1 75/1/1
f 80/1/1 76/1/1 79/1/1
f 83/3/1 82/3/1 81/3/1
f 84/3/1 82/3/1 83/3/1
f 87/3/1 86/3/1 85/3/1
f 88/3/1 86/3/1 87/3/1
f 91/3/1 90/3/1 89/3/1
f 92/3/1 90/3/1 91/3/1
f 95/3/1 94/3/1 93/3/1
f 96/3/1 94/3/1 95/3/1
f 99/1/1 98/1/1 97/1/1
f 100/1/1 98/1/1 99/1/1
f 103/1/1 102/1/1 101/1/1
f 104/1/1 102/1/1 103/1/1
f 107/1/1 106/1/1 105/1/1
f 108/1/1 106/1/1 107/1/1
f 111/1/1 110/1/1 109/1/1
f 112/1/1 111/1/1 109/1/1
f 114/1/1 112/1/1 109/1/1
f 114/1/1 113/1/1 112/1/1
f 115/1/1 113/1/1 114/1/1
f 116/1/1 113/1/1 115/1/1
f 117/1/1 113/1/1 116/1/1
f 120/1/1 119/1/1 118/1/1
f 121/1/1 119/1/1 120/1/1
f 124/1/1 123/1/1 122/1/1
f 125/1/1 123/1/1 124/1/1
f 126/1/2 127/1/2 128/1/2
f 128/1/2 127/1/2 129/1/2
f 130/1/2 131/1/2 132/1/2
f 132/1/2 131/1/2 133/1/2
f 134/1/2 135/1/2 136/1/2
f 134/1/2 136/1/2 137/1/2
f 134/1/2 137/1/2 139/1/2
f 137/1/2 138/1/2 139/1/2
f 139/1/2 138/1/2 140/1/2
f 140/1/2 138/1/2 141/1/2
f 141/1/2 138/1/2 142/1/2
f 143/1/2 144/1/2 145/1/2
f 145/1/2 144/1/2 146/1/2
f 147/1/2 148/1/2 149/1/2
f 149/1/2 148/1/2 150/1/2
f 151/1/2 152/1/2 153/1/2
f 153/1/2 152/1/2 154/1/2
f 155/3/2 156/3/2 157/3/2
f 157/3/2 156/3/2 158/3/2
f 159/3/2 160/3/2 161/3/2
f 161/3/2 160/3/2 162/3/2
f 163/3/2 164/3/2 165/3/2
f 165/3/2 164/3/2 166/3/2
f 167/1/2 168/1/2 171/1/2
f 171/1/2 168/1/2 172/1/2
f 169/1/2 170/1/2 173/1/2
f 173/1/2 170/1/2 174/1/2
f 175/3/2 176/3/2 177/3/2
f 177/3/2 176/3/2 178/3/2
f 179/3/2 180/3/2 181/3/2
f 181/3/2 180/3/2 182/3/2
f 183/3/2 184/3/2 185/3/2
f 185/3/2 184/3/2 186/3/2
f 187/3/2 188/3/2 189/3/2
f 189/3/2 188/3/2 190/3/2
f 191/3/2 192/3/2 193/3/2
f 193/3/2 192/3/2 194/3/2
f 195/3/2 196/3/2 197/3/2
f 197/3/2 196/3/2 198/3/2
f 199/3/2 200/3/2 201/3/2
f 201/3/2 200/3/2 202/3/2
f 203/1/2 204/1/2 207/1/2
f 207/1/2 204/1/2 208/1/2
f 205/1/2 206/1/2 209/1/2
f 209/1/2 206/1/2 210/1/2
f 211/3/2 212/3/2 213/3/2
f 213/3/2 212/3/2 214/3/2
f 215/1/2 216/1/2 217/1/2
f 217/1/2 216/1/2 218/1/2
f 219/3/2 220/3/2 221/3/2
f 221/3/2 220/3/2 222/3/2
f 223/3/2 224/3/2 225/3/2
f 225/3/2 224/3/2 226/3/2
f 227/3/2 228/3/2 229/3/2
f 229/3/2 228/3/2 230/3/2
f 231/1/2 232/1/2 233/1/2
f 233/1/2 232/1/2 234/1/2
f 235/1/2 236/1/2 237/1/2
f 237/1/2 236/1/2 238/1/2
f 238/1/2 236/1/2 240/1/2
f 239/1/2 240/1/2 241/1/2
f 241/1/2 240/1/2 242/1/2
f 242/1/2 240/1/2 243/1/2
f 240/1/2 236/1/2 244/1/2
f 243/1/2 240/1/2 244/1/2
f 244/1/2 236/1/2 246/1/2
f 245/1/2 246/1/2 248/1/2
f 247/1/2 248/1/2 249/1/2
f 246/1/2 236/1/2 250/1/2
f 249/1/2 248/1/2 250/1/2
f 248/1/2 246/1/2 250/1/2
f 253/1/3 252/1/3 251/1/3
f 254/1/3 252/1/3 253/1/3
f 257/1/3 256/1/3 255/1/3
f 258/1/3 256/1/3 257/1/3
f 261/1/3 260/1/3 259/1/3
f 262/1/3 260/1/3 261/1/3
f 265/1/3 264/1/3 263/1/3
f 266/1/3 264/1/3 265/1/3
f 269/1/3 268/1/3 267/1/3
f 270/1/3 268/1/3 269/1/3
f 275/1/3 272/1/3 271/1/3
f 276/1/3 272/1/3 275/1/3
f 277/1/3 274/1/3 273/1/3
f 278/1/3 274/1/3 277/1/3
f 283/1/3 280/1/3 279/1/3
f 284/1/3 280/1/3 283/1/3
f 285/1/3 282/1/3 281/1/3
f 286/1/3 282/1/3 285/1/3
f 291/1/3 290/1/3 289/1/3
f 292/1/3 290/1/3 291/1/3
f 293/1/3 288/1/3 287/1/3
f 294/1/3 288/1/3 293/1/3
f 299/1/3 298/1/3 297/1/3
f 300/1/3 298/1/3 299/1/3
f 301/1/3 296/1/3 295/1/3
f 302/1/3 296/1/3 301/1/3
f 306/1/3 304/1/3 303/1/3
f 307/2/3 305/2/3 304/2/3
f 307/1/3 304/1/3 306/1/3
f 308/2/3 305/2/3 307/2/3
f 311/3/3 310/3/3 309/3/3
f 312/3/3 310/3/3 311/3/3
f 315/3/3 314/3/3 313/3/3
f 316/3/3 314/3/3 315/3/3
f 319/3/3 318/3/3 317/3/3
f 320/3/3 318/3/3 319/3/3
f 323/3/3 322/3/3 321/3/3
f 324/3/3 322/3/3 323/3/3
f 327/3/3 326/3/3 325/3/3
f 328/3/3 326/3/3 327/3/3
f 331/3/3 330/3/3 329/3/3
f 332/3/3 330/3/3 331/3/3
f 335/3/3 334/3/3 333/3/3
f 336/3/3 334/3/3 335/3/3
f 339/3/3 338/3/3 337/3/3
f 340/3/3 338/3/3 339/3/3
f 343/3/3 342/3/3 341/3/3
f 344/3/3 342/3/3 343/3/3
f 347/3/3 346/3/3 345/3/3
f 348/3/3 346/3/3 347/3/3
f 351/3/3 350/3/3 349/3/3
f 352/3/3 350/3/3 351/3/3
f 355/3/3 354/3/3 353/3/3
f 356/3/3 354/3/3 355/3/3
f 359/3/3 358/3/3 357/3/3
f 360/3/3 358/3/3 359/3/3
f 363/3/3 362/3/3 361/3/3
f 364/3/3 362/3/3 363/3/3
f 367/1/3 366/1/3 365/1/3
f 368/1/3 366/1/3 367/1/3
f 371/1/3 370/1/3 369/1/3
f 372/1/3 370/1/3 371/1/3
f 378/1/3 374/1/3 373/1/3
f 380/1/3 376/1/3 375/1/3
f 381/1/3 376/1/3 380/1/3
f 382/1/3 376/1/3 381/1/3
f 383/1/3 380/1/3 379/1/3
f 383/1/3 381/1/3 380/1/3
f 384/1/3 381/1/3 383/1/3
f 385/1/3 381/1/3 384/1/3
f 386/1/3 381/1/3 385/1/3
f 387/1/3 376/1/3 382/1/3
f 388/1/3 376/1/3 387/1/3
f 390/1/3 385/1/3 384/1/3
f 391/1/3 390/1/3 389/1/3
f 392/1/3 385/1/3 390/1/3
f 392/1/3 390/1/3 391/1/3
f 394/1/3 385/1/3 392/1/3
f 395/1/3 394/1/3 393/1/3
f 396/1/3 385/1/3 394/1/3
f 396/1/3 394/1/3 395/1/3
f 398/1/3 385/1/3 396/1/3
f 399/1/3 398/1/3 397/1/3
f 400/1/3 385/1/3 398/1/3
f 400/1/3 398/1/3 399/1/3
f 402/1/3 385/1/3 400/1/3
f 403/1/3 402/1/3 401/1/3
f 404/1/3 385/1/3 402/1/3
f 404/1/3 402/1/3 403/1/3
f 406/1/3 385/1/3 404/1/3
f 407/1/3 406/1/3 405/1/3
f 408/1/3 385/1/3 406/1/3
f 408/1/3 406/1/3 407/1/3
f 410/1/3 385/1/3 408/1/3
f 411/1/3 410/1/3 409/1/3
f 412/1/3 385/1/3 410/1/3
f 412/1/3 410/1/3 411/1/3
f 414/1/3 385/1/3 412/1/3
f 415/1/3 414/1/3 413/1/3
f 416/1/3 385/1/3 414/1/3
f 416/1/3 414/1/3 415/1/3
f 418/1/3 385/1/3 416/1/3
f 419/1/3 418/1/3 417/1/3
f 420/1/3 385/1/3 418/1/3
f 420/1/3 418/1/3 419/1/3
f 422/1/3 385/1/3 420/1/3
f 423/1/3 422/1/3 421/1/3
f 424/1/3 385/1/3 422/1/3
f 424/1/3 422/1/3 423/1/3
f 426/1/3 385/1/3 424/1/3
f 427/1/3 426/1/3 425/1/3
f 428/1/3 385/1/3 426/1/3
f 428/1/3 426/1/3 427/1/3
f 430/1/3 385/1/3 428/1/3
f 431/1/3 430/1/3 429/1/3
f 432/1/3 385/1/3 430/1/3
f 432/1/3 430/1/3 431/1/3
f 434/1/3 385/1/3 432/1/3
f 435/1/3 434/1/3 433/1/3
f 436/1/3 385/1/3 434/1/3
f 436/1/3 434/1/3 435/1/3
f 438/1/3 385/1/3 436/1/3
f 439/1/3 438/1/3 437/1/3
f 440/1/3 385/1/3 438/1/3
f 440/1/3 438/1/3 439/1/3
f 442/1/3 385/1/3 440/1/3
f 443/1/3 385/1/3 442/1/3
f 446/1/3 376/1/3 388/1/3
f 447/1/3 378/1/3 377/1/3
f 448/1/3 374/1/3 378/1/3
f 448/1/3 378/1/3 447/1/3
f 449/1/3 444/1/3 443/1/3
f 449/1/3 442/1/3 441/1/3
f 449/1/3 443/1/3 442/1/3
f 450/1/3 444/1/3 449/1/3
f 451/1/3 444/1/3 450/1/3
f 452/1/3 446/1/3 445/1/3
f 453/1/3 374/1/3 448/1/3
f 454/1/3 374/1/3 453/1/3
f 455/1/3 451/1/3 450/1/3
f 455/1/3 452/1/3 451/1/3
f 456/1/3 446/1/3 452/1/3
f 456/1/3 452/1/3 455/1/3
f 456/1/3 376/1/3 446/1/3
f 460/1/3 458/1/3 457/1/3
f 461/1/3 458/1/3 460/1/3
f 463/1/3 460/1/3 459/1/3
f 463/1/3 462/1/3 461/1/3
f 463/1/3 461/1/3 460/1/3
f 464/1/3 462/1/3 463/1/3
f 465/1/3 462/1/3 464/1/3
f 466/1/3 462/1/3 465/1/3
f 467/1/3 465/1/3 464/1/3
f 468/1/3 465/1/3 467/1/3
f 469/1/4 470/1/4 471/1/4
f 471/1/4 470/1/4 472/1/4
f 473/1/4 474/1/4 475/1/4
f 475/1/4 474/1/4 476/1/4
f 477/1/4 478/1/4 479/1/4
f 479/1/4 478/1/4 480/1/4
f 481/1/4 482/1/4 483/1/4
f 483/1/4 482/1/4 484/1/4
f 485/1/4 486/1/4 487/1/4
f 487/1/4 486/1/4 488/1/4
f 489/1/4 490/1/4 491/1/4
f 491/1/4 490/1/4 492/1/4
f 493/1/4 494/1/4 495/1/4
f 495/1/4 494/1/4 496/1/4
f 497/1/4 498/1/4 499/1/4
f 499/1/4 498/1/4 500/1/4
f 505/1/5 502/1/5 501/1/5
f 506/1/5 502/1/5 505/1/5
f 507/1/5 504/1/5 503/1/5
f 508/1/5 504/1/5 507/1/5
f 513/1/5 510/1/5 509/1/5
f 514/1/5 510/1/5 513/1/5
f 515/1/5 512/1/5 511/1/5
f 516/1/5 512/1/5 515/1/5
f 521/1/5 518/1/5 517/1/5
f 522/1/5 520/1/5 519/1/5
f 523/1/5 521/1/5 517/1/5
f 523/1/5 522/1/5 521/1/5
f 524/1/5 520/1/5 522/1/5
f 524/1/5 522/1/5 523/1/5
f 527/1/5 526/1/5 525/1/5
f 528/1/5 526/1/5 527/1/5
f 529/1/5 526/1/5 528/1/5
f 530/1/5 526/1/5 529/1/5
f 531/1/5 527/1/5 525/1/5
f 532/1/5 529/1/5 528/1/5
f 533/1/5 529/1/5 532/1/5
f 534/1/5 526/1/5 530/1/5
f 535/1/5 533/1/5 532/1/5
f 535/1/5 534/1/5 533/1/5
f 535/1/5 531/1/5 525/1/5
f 535/1/5 532/1/5 531/1/5
f 536/1/5 534/1/5 535/1/5
f 537/1/5 534/1/5 536/1/5
f 538/1/5 526/1/5 534/1/5
f 538/1/5 534/1/5 537/1/5
f 539/1/5 535/1/5 525/1/5
f 540/1/5 537/1/5 536/1/5
f 541/1/5 537/1/5 540/1/5
f 542/1/5 526/1/5 538/1/5
f 543/1/5 539/1/5 525/1/5
f 543/1/5 542/1/5 541/1/5
f 543/1/5 541/1/5 540/1/5
f 543/1/5 540/1/5 539/1/5
f 544/1/5 526/1/5 542/1/5
f 544/1/5 542/1/5 543/1/5
f 549/1/5 546/1/5 545/1/5
f 550/1/5 546/1/5 549/1/5
f 551/1/5 548/1/5 547/1/5
f 552/1/5 548/1/5 551/1/5
f 553/1/5 546/1/5 550/1/5
f 554/1/5 551/1/5 547/1/5
f 555/1/5 549/1/5 545/1/5
f 556/1/5 554/1/5 553/1/5
f 556/1/5 553/1/5 550/1/5
f 557/1/5 551/1/5 554/1/5
f 557/1/5 554/1/5 556/1/5
f 558/1/5 548/1/5 552/1/5
f 559/1/5 557/1/5 556/1/5
f 559/1/5 558/1/5 557/1/5
f 559/1/5 555/1/5 545/1/5
f 559/1/5 556/1/5 555/1/5
f 560/1/5 548/1/5 558/1/5
f 560/1/5 558/1/5 559/1/5
f 565/1/5 562/1/5 561/1/5
f 566/1/5 562/1/5 565/1/5
f 567/1/5 564/1/5 563/1/5
f 568/1/5 564/1/5 567/1/5
f 571/1/5 570/1/5 569/1/5
f 572/1/5 570/1/5 571/1/5
f 575/1/5 574/1/5 573/1/5
f 576/1/5 574/1/5 575/1/5
f 579/1/5 578/1/5 577/1/5
f 580/1/5 578/1/5 579/1/5
f 581/1/6 582/1/6 585/1/6
f 585/1/6 582/1/6 586/1/6
f 583/1/6 584/1/6 587/1/6
f 587/1/6 584/1/6 588/1/6
f 581/1/6 585/1/6 589/1/6
f 586/1/6 582/1/6 590/1/6
f 583/1/6 587/1/6 591/1/6
f 588/1/6 584/1/6 592/1/6
f 581/1/6 589/1/6 593/1/6
f 589/1/6 590/1/6 593/1/6
f 590/1/6 582/1/6 594/1/6
f 593/1/6 590/1/6 594/1/6
f 591/1/6 592/1/6 595/1/6
f 583/1/6 591/1/6 595/1/6
f 592/1/6 584/1/6 596/1/6
f 595/1/6 592/1/6 596/1/6
f 597/1/6 598/1/6 599/1/6
f 599/1/6 598/1/6 600/1/6
f 601/2/6 602/2/6 603/2/6
f 603/2/6 602/2/6 604/2/6
f 604/2/6 602/2/6 605/2/6
f 605/2/6 602/2/6 606/2/6
f 606/2/6 602/2/6 607/2/6
f 607/2/6 602/2/6 608/2/6
f 608/2/6 602/2/6 609/2/6
f 609/2/6 602/2/6 610/2/6
f 610/2/6 602/2/6 611/2/6
f 611/2/6 602/2/6 612/2/6
f 612/2/6 602/2/6 613/2/6
f 613/2/6 602/2/6 614/2/6
f 614/2/6 602/2/6 615/2/6
f 615/2/6 602/2/6 616/2/6
f 616/2/6 602/2/6 617/2/6
f 617/2/6 602/2/6 618/2/6
f 618/2/6 602/2/6 619/2/6
f 619/2/6 602/2/6 620/2/6
f 620/2/6 602/2/6 621/2/6
f 621/2/6 602/2/6 622/2/6
f 622/2/6 602/2/6 623/2/6
f 623/2/6 602/2/6 624/2/6
f 624/2/6 602/2/6 625/2/6
f 625/2/6 602/2/6 626/2/6
f 626/2/6 602/2/6 627/2/6
f 627/2/6 602/2/6 628/2/6
f 628/2/6 602/2/6 629/2/6
f 629/2/6 602/2/6 630/2/6
f 601/2/6 603/2/6 631/2/6
f 631/2/6 603/2/6 632/2/6
f 604/2/6 605/2/6 633/2/6
f 633/2/6 605/2/6 634/2/6
f 606/2/6 607/2/6 635/2/6
f 635/2/6 607/2/6 636/2/6
f 608/2/6 609/2/6 637/2/6
f 637/2/6 609/2/6 638/2/6
f 610/2/6 611/2/6 639/2/6
f 639/2/6 611/2/6 640/2/6
f 612/2/6 613/2/6 641/2/6
f 641/2/6 613/2/6 642/2/6
f 614/2/6 615/2/6 643/2/6
f 643/2/6 615/2/6 644/2/6
f 616/2/6 617/2/6 645/2/6
f 645/2/6 617/2/6 646/2/6
f 618/2/6 619/2/6 647/2/6
f 647/2/6 619/2/6 648/2/6
f 620/2/6 621/2/6 649/2/6
f 649/2/6 621/2/6 650/2/6
f 622/2/6 623/2/6 651/2/6
f 651/2/6 623/2/6 652/2/6
f 624/2/6 625/2/6 653/2/6
f 653/2/6 625/2/6 654/2/6
f 626/2/6 627/2/6 655/2/6
f 655/2/6 627/2/6 656/2/6
f 628/2/6 629/2/6 657/2/6
f 657/2/6 629/2/6 658/2/6
f 630/2/6 602/2/6 659/2/6
f 659/2/6 602/2/6 660/2/6
f 661/3/6 662/3/6 689/3/6
f 689/3/6 662/3/6 690/3/6
f 663/3/6 664/3/6 691/3/6
f 691/3/6 664/3/6 692/3/6
f 665/3/6 666/3/6 693/3/6
f 693/3/6 666/3/6 694/3/6
f 667/3/6 668/3/6 695/3/6
f 695/3/6 668/3/6 696/3/6
f 669/3/6 670/3/6 697/3/6
f 697/3/6 670/3/6 698/3/6
f 671/3/6 672/3/6 699/3/6
f 699/3/6 672/3/6 700/3/6
f 673/3/6 674/3/6 701/3/6
f 701/3/6 674/3/6 702/3/6
f 675/3/6 676/3/6 703/3/6
f 703/3/6 676/3/6 704/3/6
f 677/3/6 678/3/6 705/3/6
f 705/3/6 678/3/6 706/3/6
f 679/3/6 680/3/6 707/3/6
f 707/3/6 680/3/6 708/3/6
f 681/3/6 682/3/6 709/3/6
f 709/3/6 682/3/6 710/3/6
f 683/3/6 684/3/6 711/3/6
f 711/3/6 684/3/6 712/3/6
f 685/3/6 686/3/6 713/3/6
f 713/3/6 686/3/6 714/3/6
f 687/3/6 688/3/6 715/3/6
f 715/3/6 688/3/6 716/3/6
f 717/1/6 718/1/6 721/1/6
f 721/1/6 718/1/6 722/1/6
f 719/1/6 720/1/6 723/1/6
f 723/1/6 720/1/6 724/1/6
f 725/1/6 726/1/6 729/1/6
f 729/1/6 726/1/6 730/1/6
f 727/1/6 728/1/6 731/1/6
f 731/1/6 728/1/6 732/1/6
f 733/1/6 734/1/6 735/1/6
f 735/1/6 734/1/6 736/1/6
f 737/1/6 738/1/6 741/1/6
f 741/1/6 738/1/6 742/1/6
f 739/1/6 740/1/6 743/1/6
f 743/1/6 740/1/6 744/1/6
f 745/1/6 746/1/6 747/1/6
f 747/1/6 746/1/6 748/1/6
