# MagicaVoxel @ Ephtracy

# group
o 

# material
mtllib Door.mtl
usemtl palette

# normals
vn -1 0 0
vn 1 0 0
vn 0 0 1
vn 0 0 -1
vn 0 -1 0
vn 0 1 0

# texcoords
vt 0.185547 0.5
vt 0.869141 0.5

# verts
v -0.3 1.8 -0.9
v -0.3 1.8 -1
v -0.3 1.9 -0.8
v -0.3 1.9 -0.9
v -0.3 2 -0.8
v -0.3 2 -1
v -0.2 -0.5 1.1
v -0.2 -0.5 -1.1
v -0.2 -0.3 1
v -0.2 -0.3 -1
v -0.2 -0.2 0.9
v -0.2 -0.2 -0.9
v -0.2 1.5 0.9
v -0.2 1.5 -0.9
v -0.2 1.6 1
v -0.2 1.6 -1
v -0.2 1.8 -0.9
v -0.2 1.8 -1
v -0.2 1.9 -0.8
v -0.2 1.9 -0.9
v -0.2 2 -0.8
v -0.2 2 -1
v -0.2 2.2 1
v -0.2 2.2 -1
v -0.2 2.3 0.9
v -0.2 2.3 -0.9
v -0.2 3.6 0.9
v -0.2 3.6 -0.9
v -0.2 3.7 1
v -0.2 3.7 -1
v -0.2 3.8 1.1
v -0.2 3.8 -1.1
v -0.1 -0.3 1
v -0.1 -0.3 -1
v -0.1 -0.2 0.9
v -0.1 -0.2 -0.9
v -0.1 1.5 0.9
v -0.1 1.5 -0.9
v -0.1 1.6 1
v -0.1 1.6 -1
v -0.1 2.2 1
v -0.1 2.2 -1
v -0.1 2.3 0.9
v -0.1 2.3 -0.9
v -0.1 3.6 0.9
v -0.1 3.6 -0.9
v -0.1 3.7 1
v -0.1 3.7 -1
v 2.98023e-08 -0.3 1
v 2.98023e-08 -0.3 -1
v 2.98023e-08 -0.2 0.9
v 2.98023e-08 -0.2 -0.9
v 2.98023e-08 1.5 0.9
v 2.98023e-08 1.5 -0.9
v 2.98023e-08 1.6 1
v 2.98023e-08 1.6 -1
v 2.98023e-08 2.2 1
v 2.98023e-08 2.2 -1
v 2.98023e-08 2.3 0.9
v 2.98023e-08 2.3 -0.9
v 2.98023e-08 3.6 0.9
v 2.98023e-08 3.6 -0.9
v 2.98023e-08 3.7 1
v 2.98023e-08 3.7 -1
v 0.1 -0.5 1.1
v 0.1 -0.5 -1.1
v 0.1 -0.3 1
v 0.1 -0.3 -1
v 0.1 -0.2 0.9
v 0.1 -0.2 -0.9
v 0.1 1.5 0.9
v 0.1 1.5 -0.9
v 0.1 1.6 1
v 0.1 1.6 -1
v 0.1 1.8 -0.9
v 0.1 1.8 -1
v 0.1 1.9 -0.8
v 0.1 1.9 -0.9
v 0.1 2 -0.8
v 0.1 2 -1
v 0.1 2.2 1
v 0.1 2.2 -1
v 0.1 2.3 0.9
v 0.1 2.3 -0.9
v 0.1 3.6 0.9
v 0.1 3.6 -0.9
v 0.1 3.7 1
v 0.1 3.7 -1
v 0.1 3.8 1.1
v 0.1 3.8 -1.1
v 0.2 1.8 -0.9
v 0.2 1.8 -1
v 0.2 1.9 -0.8
v 0.2 1.9 -0.9
v 0.2 2 -0.8
v 0.2 2 -1
v -0.2 -0.5 1.1
v -0.2 3.8 1.1
v 0.1 -0.5 1.1
v 0.1 3.8 1.1
v -0.2 -0.2 0.9
v -0.2 1.5 0.9
v -0.2 2.3 0.9
v -0.2 3.6 0.9
v -0.1 -0.2 0.9
v -0.1 1.5 0.9
v -0.1 2.3 0.9
v -0.1 3.6 0.9
v 2.98023e-08 -0.2 0.9
v 2.98023e-08 1.5 0.9
v 2.98023e-08 2.3 0.9
v 2.98023e-08 3.6 0.9
v 0.1 -0.2 0.9
v 0.1 1.5 0.9
v 0.1 2.3 0.9
v 0.1 3.6 0.9
v -0.3 1.9 -0.8
v -0.3 2 -0.8
v -0.2 1.9 -0.8
v -0.2 2 -0.8
v 0.1 1.9 -0.8
v 0.1 2 -0.8
v 0.2 1.9 -0.8
v 0.2 2 -0.8
v -0.3 1.8 -0.9
v -0.3 1.9 -0.9
v -0.2 1.8 -0.9
v -0.2 1.9 -0.9
v 0.1 1.8 -0.9
v 0.1 1.9 -0.9
v 0.2 1.8 -0.9
v 0.2 1.9 -0.9
v -0.2 -0.3 -1
v -0.2 1.6 -1
v -0.2 2.2 -1
v -0.2 3.7 -1
v -0.1 -0.3 -1
v -0.1 1.6 -1
v -0.1 2.2 -1
v -0.1 3.7 -1
v 2.98023e-08 -0.3 -1
v 2.98023e-08 1.6 -1
v 2.98023e-08 2.2 -1
v 2.98023e-08 3.7 -1
v 0.1 -0.3 -1
v 0.1 1.6 -1
v 0.1 2.2 -1
v 0.1 3.7 -1
v -0.2 -0.3 1
v -0.2 1.6 1
v -0.2 2.2 1
v -0.2 3.7 1
v -0.1 -0.3 1
v -0.1 1.6 1
v -0.1 2.2 1
v -0.1 3.7 1
v 2.98023e-08 -0.3 1
v 2.98023e-08 1.6 1
v 2.98023e-08 2.2 1
v 2.98023e-08 3.7 1
v 0.1 -0.3 1
v 0.1 1.6 1
v 0.1 2.2 1
v 0.1 3.7 1
v -0.2 -0.2 -0.9
v -0.2 1.5 -0.9
v -0.2 2.3 -0.9
v -0.2 3.6 -0.9
v -0.1 -0.2 -0.9
v -0.1 1.5 -0.9
v -0.1 2.3 -0.9
v -0.1 3.6 -0.9
v 2.98023e-08 -0.2 -0.9
v 2.98023e-08 1.5 -0.9
v 2.98023e-08 2.3 -0.9
v 2.98023e-08 3.6 -0.9
v 0.1 -0.2 -0.9
v 0.1 1.5 -0.9
v 0.1 2.3 -0.9
v 0.1 3.6 -0.9
v -0.3 1.8 -1
v -0.3 2 -1
v -0.2 1.8 -1
v -0.2 2 -1
v 0.1 1.8 -1
v 0.1 2 -1
v 0.2 1.8 -1
v 0.2 2 -1
v -0.2 -0.5 -1.1
v -0.2 3.8 -1.1
v 0.1 -0.5 -1.1
v 0.1 3.8 -1.1
v -0.2 -0.5 1.1
v 0.1 -0.5 1.1
v -0.2 -0.5 -1.1
v 0.1 -0.5 -1.1
v -0.2 -0.2 0.9
v -0.1 -0.2 0.9
v 2.98023e-08 -0.2 0.9
v 0.1 -0.2 0.9
v -0.2 -0.2 -0.9
v -0.1 -0.2 -0.9
v 2.98023e-08 -0.2 -0.9
v 0.1 -0.2 -0.9
v -0.2 1.6 1
v -0.1 1.6 1
v 2.98023e-08 1.6 1
v 0.1 1.6 1
v -0.2 1.6 -1
v -0.1 1.6 -1
v 2.98023e-08 1.6 -1
v 0.1 1.6 -1
v -0.3 1.8 -0.9
v -0.2 1.8 -0.9
v 0.1 1.8 -0.9
v 0.2 1.8 -0.9
v -0.3 1.8 -1
v -0.2 1.8 -1
v 0.1 1.8 -1
v 0.2 1.8 -1
v -0.3 1.9 -0.8
v -0.2 1.9 -0.8
v 0.1 1.9 -0.8
v 0.2 1.9 -0.8
v -0.3 1.9 -0.9
v -0.2 1.9 -0.9
v 0.1 1.9 -0.9
v 0.2 1.9 -0.9
v -0.2 2.3 0.9
v -0.1 2.3 0.9
v 2.98023e-08 2.3 0.9
v 0.1 2.3 0.9
v -0.2 2.3 -0.9
v -0.1 2.3 -0.9
v 2.98023e-08 2.3 -0.9
v 0.1 2.3 -0.9
v -0.2 3.7 1
v -0.1 3.7 1
v 2.98023e-08 3.7 1
v 0.1 3.7 1
v -0.2 3.7 -1
v -0.1 3.7 -1
v 2.98023e-08 3.7 -1
v 0.1 3.7 -1
v -0.2 -0.3 1
v -0.1 -0.3 1
v 2.98023e-08 -0.3 1
v 0.1 -0.3 1
v -0.2 -0.3 -1
v -0.1 -0.3 -1
v 2.98023e-08 -0.3 -1
v 0.1 -0.3 -1
v -0.2 1.5 0.9
v -0.1 1.5 0.9
v 2.98023e-08 1.5 0.9
v 0.1 1.5 0.9
v -0.2 1.5 -0.9
v -0.1 1.5 -0.9
v 2.98023e-08 1.5 -0.9
v 0.1 1.5 -0.9
v -0.3 2 -0.8
v -0.2 2 -0.8
v 0.1 2 -0.8
v 0.2 2 -0.8
v -0.3 2 -1
v -0.2 2 -1
v 0.1 2 -1
v 0.2 2 -1
v -0.2 2.2 1
v -0.1 2.2 1
v 2.98023e-08 2.2 1
v 0.1 2.2 1
v -0.2 2.2 -1
v -0.1 2.2 -1
v 2.98023e-08 2.2 -1
v 0.1 2.2 -1
v -0.2 3.6 0.9
v -0.1 3.6 0.9
v 2.98023e-08 3.6 0.9
v 0.1 3.6 0.9
v -0.2 3.6 -0.9
v -0.1 3.6 -0.9
v 2.98023e-08 3.6 -0.9
v 0.1 3.6 -0.9
v -0.2 3.8 1.1
v 0.1 3.8 1.1
v -0.2 3.8 -1.1
v 0.1 3.8 -1.1

# faces
f 4/1/1 2/1/1 1/1/1
f 5/1/1 4/1/1 3/1/1
f 6/1/1 2/1/1 4/1/1
f 6/1/1 4/1/1 5/1/1
f 9/2/1 8/2/1 7/2/1
f 10/2/1 8/2/1 9/2/1
f 13/2/1 12/2/1 11/2/1
f 14/2/1 12/2/1 13/2/1
f 15/2/1 9/2/1 7/2/1
f 16/2/1 8/2/1 10/2/1
f 17/2/1 16/2/1 15/2/1
f 18/2/1 8/2/1 16/2/1
f 18/2/1 16/2/1 17/2/1
f 19/2/1 17/2/1 15/2/1
f 20/2/1 17/2/1 19/2/1
f 21/2/1 19/2/1 15/2/1
f 22/2/1 8/2/1 18/2/1
f 23/2/1 15/2/1 7/2/1
f 23/2/1 22/2/1 21/2/1
f 23/2/1 21/2/1 15/2/1
f 24/2/1 8/2/1 22/2/1
f 24/2/1 22/2/1 23/2/1
f 27/2/1 26/2/1 25/2/1
f 28/2/1 26/2/1 27/2/1
f 29/2/1 23/2/1 7/2/1
f 30/2/1 8/2/1 24/2/1
f 31/2/1 29/2/1 7/2/1
f 31/2/1 30/2/1 29/2/1
f 32/2/1 8/2/1 30/2/1
f 32/2/1 30/2/1 31/2/1
f 35/2/1 34/2/1 33/2/1
f 36/2/1 34/2/1 35/2/1
f 37/2/1 35/2/1 33/2/1
f 38/2/1 34/2/1 36/2/1
f 39/2/1 37/2/1 33/2/1
f 39/2/1 38/2/1 37/2/1
f 40/2/1 34/2/1 38/2/1
f 40/2/1 38/2/1 39/2/1
f 43/2/1 42/2/1 41/2/1
f 44/2/1 42/2/1 43/2/1
f 45/2/1 43/2/1 41/2/1
f 46/2/1 42/2/1 44/2/1
f 47/2/1 45/2/1 41/2/1
f 47/2/1 46/2/1 45/2/1
f 48/2/1 42/2/1 46/2/1
f 48/2/1 46/2/1 47/2/1
f 49/2/2 50/2/2 51/2/2
f 51/2/2 50/2/2 52/2/2
f 49/2/2 51/2/2 53/2/2
f 52/2/2 50/2/2 54/2/2
f 49/2/2 53/2/2 55/2/2
f 53/2/2 54/2/2 55/2/2
f 54/2/2 50/2/2 56/2/2
f 55/2/2 54/2/2 56/2/2
f 57/2/2 58/2/2 59/2/2
f 59/2/2 58/2/2 60/2/2
f 57/2/2 59/2/2 61/2/2
f 60/2/2 58/2/2 62/2/2
f 57/2/2 61/2/2 63/2/2
f 61/2/2 62/2/2 63/2/2
f 62/2/2 58/2/2 64/2/2
f 63/2/2 62/2/2 64/2/2
f 65/2/2 66/2/2 67/2/2
f 67/2/2 66/2/2 68/2/2
f 69/2/2 70/2/2 71/2/2
f 71/2/2 70/2/2 72/2/2
f 65/2/2 67/2/2 73/2/2
f 68/2/2 66/2/2 74/2/2
f 73/2/2 74/2/2 75/2/2
f 74/2/2 66/2/2 76/2/2
f 75/2/2 74/2/2 76/2/2
f 73/2/2 75/2/2 77/2/2
f 77/2/2 75/2/2 78/2/2
f 73/2/2 77/2/2 79/2/2
f 76/2/2 66/2/2 80/2/2
f 65/2/2 73/2/2 81/2/2
f 79/2/2 80/2/2 81/2/2
f 73/2/2 79/2/2 81/2/2
f 80/2/2 66/2/2 82/2/2
f 81/2/2 80/2/2 82/2/2
f 83/2/2 84/2/2 85/2/2
f 85/2/2 84/2/2 86/2/2
f 65/2/2 81/2/2 87/2/2
f 82/2/2 66/2/2 88/2/2
f 65/2/2 87/2/2 89/2/2
f 87/2/2 88/2/2 89/2/2
f 88/2/2 66/2/2 90/2/2
f 89/2/2 88/2/2 90/2/2
f 91/1/2 92/1/2 94/1/2
f 93/1/2 94/1/2 95/1/2
f 94/1/2 92/1/2 96/1/2
f 95/1/2 94/1/2 96/1/2
f 99/2/3 98/2/3 97/2/3
f 100/2/3 98/2/3 99/2/3
f 105/2/3 102/2/3 101/2/3
f 106/2/3 102/2/3 105/2/3
f 107/2/3 104/2/3 103/2/3
f 108/2/3 104/2/3 107/2/3
f 113/2/3 110/2/3 109/2/3
f 114/2/3 110/2/3 113/2/3
f 115/2/3 112/2/3 111/2/3
f 116/2/3 112/2/3 115/2/3
f 119/1/3 118/1/3 117/1/3
f 120/1/3 118/1/3 119/1/3
f 123/1/3 122/1/3 121/1/3
f 124/1/3 122/1/3 123/1/3
f 127/1/3 126/1/3 125/1/3
f 128/1/3 126/1/3 127/1/3
f 131/1/3 130/1/3 129/1/3
f 132/1/3 130/1/3 131/1/3
f 137/2/3 134/2/3 133/2/3
f 138/2/3 134/2/3 137/2/3
f 139/2/3 136/2/3 135/2/3
f 140/2/3 136/2/3 139/2/3
f 145/2/3 142/2/3 141/2/3
f 146/2/3 142/2/3 145/2/3
f 147/2/3 144/2/3 143/2/3
f 148/2/3 144/2/3 147/2/3
f 149/2/4 150/2/4 153/2/4
f 153/2/4 150/2/4 154/2/4
f 151/2/4 152/2/4 155/2/4
f 155/2/4 152/2/4 156/2/4
f 157/2/4 158/2/4 161/2/4
f 161/2/4 158/2/4 162/2/4
f 159/2/4 160/2/4 163/2/4
f 163/2/4 160/2/4 164/2/4
f 165/2/4 166/2/4 169/2/4
f 169/2/4 166/2/4 170/2/4
f 167/2/4 168/2/4 171/2/4
f 171/2/4 168/2/4 172/2/4
f 173/2/4 174/2/4 177/2/4
f 177/2/4 174/2/4 178/2/4
f 175/2/4 176/2/4 179/2/4
f 179/2/4 176/2/4 180/2/4
f 181/1/4 182/1/4 183/1/4
f 183/1/4 182/1/4 184/1/4
f 185/1/4 186/1/4 187/1/4
f 187/1/4 186/1/4 188/1/4
f 189/2/4 190/2/4 191/2/4
f 191/2/4 190/2/4 192/2/4
f 195/2/5 194/2/5 193/2/5
f 196/2/5 194/2/5 195/2/5
f 201/2/5 198/2/5 197/2/5
f 202/2/5 198/2/5 201/2/5
f 203/2/5 200/2/5 199/2/5
f 204/2/5 200/2/5 203/2/5
f 209/2/5 206/2/5 205/2/5
f 210/2/5 206/2/5 209/2/5
f 211/2/5 208/2/5 207/2/5
f 212/2/5 208/2/5 211/2/5
f 217/1/5 214/1/5 213/1/5
f 218/1/5 214/1/5 217/1/5
f 219/1/5 216/1/5 215/1/5
f 220/1/5 216/1/5 219/1/5
f 225/1/5 222/1/5 221/1/5
f 226/1/5 222/1/5 225/1/5
f 227/1/5 224/1/5 223/1/5
f 228/1/5 224/1/5 227/1/5
f 233/2/5 230/2/5 229/2/5
f 234/2/5 230/2/5 233/2/5
f 235/2/5 232/2/5 231/2/5
f 236/2/5 232/2/5 235/2/5
f 241/2/5 238/2/5 237/2/5
f 242/2/5 238/2/5 241/2/5
f 243/2/5 240/2/5 239/2/5
f 244/2/5 240/2/5 243/2/5
f 245/2/6 246/2/6 249/2/6
f 249/2/6 246/2/6 250/2/6
f 247/2/6 248/2/6 251/2/6
f 251/2/6 248/2/6 252/2/6
f 253/2/6 254/2/6 257/2/6
f 257/2/6 254/2/6 258/2/6
f 255/2/6 256/2/6 259/2/6
f 259/2/6 256/2/6 260/2/6
f 261/1/6 262/1/6 265/1/6
f 265/1/6 262/1/6 266/1/6
f 263/1/6 264/1/6 267/1/6
f 267/1/6 264/1/6 268/1/6
f 269/2/6 270/2/6 273/2/6
f 273/2/6 270/2/6 274/2/6
f 271/2/6 272/2/6 275/2/6
f 275/2/6 272/2/6 276/2/6
f 277/2/6 278/2/6 281/2/6
f 281/2/6 278/2/6 282/2/6
f 279/2/6 280/2/6 283/2/6
f 283/2/6 280/2/6 284/2/6
f 285/2/6 286/2/6 287/2/6
f 287/2/6 286/2/6 288/2/6
